<svg width="392" height="192" viewBox="0 0 392 192" fill="none" xmlns="http://www.w3.org/2000/svg">
<path d="M0 0H392V192H0V0Z" fill="url(#paint0_linear_59_125)"/>
<path d="M170.767 76.9376C169.196 77.1667 167.821 78.2466 167.428 79.5394C166.708 81.9775 168.345 83.6466 171.487 83.6466C174.154 83.6466 175.217 84.1212 175.365 85.3812C175.545 86.7884 174.301 87.7212 172.059 87.8684C170.881 87.9339 170.636 87.9011 169.85 87.5248C169.359 87.3121 168.721 86.8866 168.41 86.5921L167.854 86.0848L166.757 87.1484L167.363 87.7866C168.312 88.7521 169.801 89.4066 171.257 89.5048C175.054 89.7502 177.688 87.4102 176.919 84.4975C176.494 82.943 175.234 82.2884 172.239 82.0921C171.257 82.043 170.21 81.8794 169.932 81.7648C168.672 81.2412 168.787 79.7194 170.145 78.8848C171.323 78.1485 173.679 78.4757 175.037 79.5394L175.447 79.8666L175.97 79.2775L176.477 78.7048L176.003 78.2957C174.645 77.1994 172.583 76.6594 170.767 76.9376Z" fill="white"/>
<path d="M142.212 77.3639C142.31 77.593 142.441 77.9202 142.539 78.0839C142.67 78.313 142.163 79.4748 140.085 83.762L137.45 89.1293L138.301 89.1784C138.956 89.2111 139.201 89.162 139.299 88.9656C139.905 87.902 141.083 87.542 144.388 87.4438L146.957 87.3784L147.383 88.2947L147.792 89.2111H148.692C149.183 89.2111 149.576 89.1947 149.576 89.162C149.576 89.0966 146.614 82.7966 145.321 80.1293C144.683 78.7711 144.077 77.5112 143.996 77.2984C143.881 76.9875 143.734 76.9384 142.948 76.9384C142.065 76.9384 142.065 76.9384 142.212 77.3639ZM144.994 83.2875C145.648 84.5802 146.139 85.6438 146.123 85.6766C146.09 85.6929 145.059 85.7911 143.832 85.8893C142.605 85.9875 141.427 86.1511 141.23 86.2657C141.034 86.3638 140.837 86.4293 140.805 86.3802C140.756 86.3475 141.132 85.4802 141.607 84.4493C142.097 83.4184 142.703 82.1257 142.948 81.5529C143.325 80.7184 143.456 80.5548 143.603 80.7348C143.717 80.8493 144.339 81.9948 144.994 83.2875Z" fill="white"/>
<path d="M247.888 77.2652C244.861 78.5088 243.257 81.2742 243.83 84.187C244.615 88.1633 248.346 90.4051 252.241 89.2106C253.173 88.916 254.662 87.9997 254.99 87.5251C255.039 87.4269 254.908 87.0833 254.662 86.7724C254.433 86.4451 254.221 86.1506 254.188 86.1179C254.172 86.0851 253.828 86.3469 253.435 86.6906C251.537 88.376 248.461 88.2615 246.644 86.4615C244.452 84.2524 245.09 80.407 247.872 78.9997C249.443 78.2143 251.472 78.3288 252.928 79.2943L253.795 79.867L254.302 79.2943C254.793 78.7215 254.793 78.6888 254.532 78.3943C254.368 78.2143 253.762 77.8379 253.173 77.5434C252.192 77.0688 251.946 77.0197 250.375 76.987C248.984 76.9543 248.51 77.0034 247.888 77.2652Z" fill="white"/>
<path d="M153.83 89.2111H162.994V87.5747H155.467V84.3348L156.007 84.1384C156.285 84.0239 157.43 83.8929 158.543 83.8602L160.539 83.7784V82.1748H158.952C157.463 82.1748 156.776 82.2729 155.827 82.5675L155.45 82.6984L155.548 78.8202L158.87 78.7711L162.176 78.7384V77.2657H153.83V89.2111Z" fill="white"/>
<path d="M180.175 78.7221L184.512 78.8202L184.561 84.0075L184.594 89.2111H186.066L186.099 84.0075L186.148 78.8202L190.485 78.7221V77.2657H180.175V78.7221Z" fill="white"/>
<path d="M194.575 89.2111H196.212V83.8275L196.899 83.6475C197.406 83.5002 197.995 83.5002 199.255 83.6638C200.188 83.762 201.546 83.8111 202.266 83.762L203.575 83.6802V89.2111H205.211V77.2657H203.575V81.8475L203.133 82.0275C202.822 82.1584 201.971 82.1748 200.548 82.0929C197.619 81.9129 197.521 81.9129 196.833 82.0602L196.212 82.1911V77.2657H194.575V89.2111Z" fill="white"/>
<path d="M210.612 89.2111H219.775V87.5747H212.248V85.9711C212.248 84.3675 212.248 84.3511 212.706 84.1384C212.952 84.0239 214.032 83.8929 215.161 83.8438L217.157 83.762V82.1748H215.652C214.228 82.1748 213.541 82.2729 212.608 82.5675L212.232 82.6984L212.33 78.8202L215.733 78.7711L219.121 78.7384V77.2657H210.612V89.2111Z" fill="white"/>
<path d="M223.048 78.7221L227.385 78.8202L227.434 84.0075L227.467 89.2111H229.103L229.136 84.0075L229.185 78.8202L233.357 78.7221V77.2657H223.048V78.7221Z" fill="white"/>
<path d="M237.448 89.2111H239.084V77.2657H237.448V89.2111Z" fill="white"/>
<path d="M242.275 97.0816C241.13 98.1452 239.821 100.878 238.594 104.854C238.184 106.163 237.955 106.572 236.597 108.372C234.846 110.712 233.161 112.512 232.834 112.414C232.474 112.283 232.572 109.518 232.997 107.865C233.406 106.294 234.241 104.445 235.01 103.349C235.926 102.105 236.27 102.482 235.894 104.314C235.763 104.969 235.648 105.509 235.648 105.525C235.648 105.558 235.763 105.574 235.894 105.574C236.237 105.574 236.597 104.936 236.794 103.971C236.974 102.94 236.777 102.252 236.204 101.991C235.37 101.614 234.977 101.762 233.995 102.776C232.425 104.38 231.345 107.145 231.132 110.058C231.001 111.842 231.246 112.594 232.081 112.905C233.259 113.363 234.028 112.807 236.237 109.943L237.612 108.143L237.514 109.354C237.399 110.729 237.563 111.04 238.348 110.942C238.724 110.892 238.954 110.582 239.984 108.634C240.655 107.391 241.392 106.098 241.654 105.771C242.079 105.214 242.112 105.198 242.161 105.525C242.194 105.722 241.997 106.687 241.719 107.652C241.114 109.862 240.884 111.22 240.884 112.725C240.884 113.756 240.934 113.936 241.244 114.149C242.292 114.885 243.47 114.116 244.828 111.842C246.055 109.763 247.921 106.278 247.921 106.082C247.921 105.722 247.283 105.918 246.972 106.343C246.808 106.605 246.203 107.685 245.63 108.765C243.944 111.972 242.93 113.429 242.39 113.429C242.03 113.429 242.226 111.563 242.914 108.438C243.748 104.723 243.699 104.265 242.504 104.265C242.014 104.265 241.801 104.38 241.31 104.92C240.999 105.28 240.492 105.967 240.214 106.474C239.264 108.16 239.166 107.8 239.903 105.247C240.181 104.298 240.394 103.512 240.394 103.496C240.394 103.496 241.228 102.645 242.243 101.614C244.206 99.6507 244.975 98.4562 244.975 97.4252C244.975 96.7053 244.615 96.4271 243.699 96.4107C243.11 96.4107 242.897 96.5089 242.275 97.0816ZM244.206 97.098C244.403 97.7034 243.306 99.5198 241.964 100.812C241.506 101.271 241.375 101.32 241.375 101.091C241.375 100.633 242.701 98.1943 243.323 97.5071C243.895 96.8689 244.092 96.7707 244.206 97.098Z" fill="white"/>
<path d="M150.164 99.5362C147.644 99.9453 146.041 102.596 147.154 104.494C147.775 105.574 148.692 105.934 151.179 106.065C154.059 106.229 154.648 106.556 154.648 108.045C154.648 109.305 153.29 110.156 151.294 110.156C150.017 110.156 149.281 109.911 148.283 109.158C147.383 108.471 147.186 108.471 146.564 109.158C146.27 109.485 146.286 109.502 146.974 110.14C148.659 111.694 150.983 112.185 153.29 111.498C155.712 110.762 156.841 108.978 156.219 106.834C155.761 105.263 154.91 104.805 151.899 104.576C149.87 104.413 149.444 104.298 148.888 103.807C148.463 103.447 148.512 102.58 149.003 101.991C150.132 100.665 152.488 100.747 154.517 102.171C154.746 102.334 154.861 102.318 155.139 102.056C155.859 101.402 155.859 101.205 155.123 100.682C153.797 99.7162 151.834 99.258 150.164 99.5362Z" fill="white"/>
<path d="M160.572 104.216C160.621 108.34 160.637 108.634 160.981 109.256C161.865 110.909 163.157 111.629 165.383 111.76C168.001 111.891 169.654 111.105 170.603 109.256L171.094 108.291L171.159 104.069L171.208 99.8471H169.572L169.506 103.987L169.457 108.143L168.999 108.814C168.377 109.698 167.608 110.042 166.119 110.123C164.712 110.205 163.877 109.993 163.141 109.387C162.241 108.618 162.176 108.274 162.176 103.856V99.8471H160.523L160.572 104.216Z" fill="white"/>
<path d="M176.248 111.465H177.884V109.19C177.884 107.178 177.917 106.899 178.179 106.801C178.326 106.736 179.521 106.621 180.83 106.556C183.399 106.409 183.939 106.278 184.642 105.607C185.395 104.903 185.624 104.298 185.624 103.103C185.624 101.679 185.101 100.698 184.053 100.19C183.399 99.8795 183.072 99.8468 179.799 99.8468H176.248V111.465ZM183.186 101.549C184.184 101.974 184.397 103.561 183.546 104.412C183.17 104.789 182.99 104.821 180.797 104.919C179.504 104.985 178.326 105.083 178.179 105.149C177.901 105.279 177.884 105.132 177.884 103.299V101.319H180.257C181.91 101.319 182.81 101.385 183.186 101.549Z" fill="white"/>
<path d="M189.994 111.465H191.63V109.256C191.63 107.145 191.647 107.047 192.007 106.85C192.203 106.736 193.365 106.605 194.69 106.539C196.605 106.458 197.128 106.376 197.75 106.065C199.992 104.985 200.008 101.172 197.783 100.158C197.194 99.8959 196.67 99.8468 193.561 99.8468H189.994V111.465ZM197.03 101.565C197.619 101.876 197.848 102.269 197.848 103.021C197.848 103.807 197.603 104.363 197.161 104.609C196.948 104.739 195.803 104.87 194.494 104.919C193.234 104.985 192.072 105.099 191.925 105.165C191.647 105.279 191.63 105.132 191.63 103.299V101.319H194.085C195.967 101.319 196.67 101.385 197.03 101.565Z" fill="white"/>
<path d="M203.739 111.465H211.921V109.992L208.697 109.959L205.457 109.91L205.408 104.87L205.375 99.8468H203.739V111.465Z" fill="white"/>
<path d="M214.539 99.9613C214.539 100.125 215.831 102.465 216.388 103.283C216.65 103.692 217.304 104.543 217.844 105.198L218.793 106.359V111.465H220.43V106.572L221.591 105.132C222.769 103.659 224.16 101.483 224.602 100.436L224.848 99.8468H223.048L222.459 101.025C221.804 102.35 220.691 103.97 220.037 104.592L219.595 104.985L219.186 104.51C218.384 103.545 217.108 101.598 216.731 100.73L216.339 99.8468H215.439C214.948 99.8468 214.539 99.8959 214.539 99.9613Z" fill="white"/>
<path d="M227.728 110.614C227.188 111.661 227.581 112.643 228.563 112.643C229.119 112.643 229.757 111.94 229.757 111.318C229.757 110.745 229.315 110.336 228.563 110.205C228.039 110.123 227.957 110.172 227.728 110.614Z" fill="white"/>
<defs>
<linearGradient id="paint0_linear_59_125" x1="392" y1="1.19259e-05" x2="7.69677e-06" y2="194.5" gradientUnits="userSpaceOnUse">
<stop/>
<stop offset="1" stop-color="#101010"/>
</linearGradient>
</defs>
</svg>
