<svg width="392" height="192" viewBox="0 0 392 192" fill="none" xmlns="http://www.w3.org/2000/svg">
<path d="M0 0H392V192H0V0Z" fill="url(#paint0_linear_62_199)"/>
<path d="M222.84 107.838C223.03 107.679 223.221 107.503 223.413 107.309C223.601 107.12 223.774 106.927 223.933 106.733C224.113 106.513 224.269 106.304 224.399 106.108C224.52 105.926 224.653 105.701 224.795 105.435C224.921 105.198 225.034 104.958 225.134 104.718C225.246 104.445 225.336 104.197 225.402 103.975C225.472 103.743 225.535 103.48 225.591 103.184C225.648 102.89 225.688 102.616 225.71 102.368C225.731 102.126 225.739 101.85 225.736 101.543C225.732 101.253 225.715 100.983 225.687 100.734C225.655 100.459 225.612 100.197 225.558 99.951C225.505 99.7088 225.435 99.4537 225.349 99.1888C225.271 98.9499 225.178 98.7063 225.07 98.4597C224.958 98.2026 224.843 97.9692 224.728 97.7621C224.6 97.5333 224.463 97.313 224.318 97.1029C224.174 96.8948 224.017 96.689 223.847 96.4878C223.688 96.2992 223.51 96.109 223.316 95.9186C223.125 95.7321 222.931 95.559 222.736 95.4012C222.514 95.2225 222.304 95.0673 222.108 94.938C221.924 94.8175 221.698 94.6859 221.43 94.5444C221.193 94.4191 220.952 94.3064 220.71 94.208C220.436 94.0965 220.185 94.0065 219.962 93.9401C219.729 93.8715 219.464 93.8085 219.166 93.7522C218.87 93.6963 218.596 93.6569 218.345 93.6351C218.102 93.6136 217.825 93.6054 217.516 93.6093C216.244 93.6262 214.815 93.984 213.587 94.2069L214.341 91.688C214.458 91.2978 214.581 90.9477 214.708 90.6372C214.853 90.2877 215.011 89.9513 215.182 89.6305C215.335 89.3437 215.524 89.0314 215.748 88.6963C215.964 88.3705 216.181 88.0751 216.396 87.8121C216.63 87.5251 216.872 87.2552 217.121 87.0041C217.367 86.7564 217.634 86.5112 217.922 86.2721C218.196 86.0434 218.486 85.8243 218.791 85.6162C219.091 85.4108 219.4 85.2204 219.716 85.0464C220.054 84.8596 220.383 84.6969 220.702 84.5592C221.027 84.4189 221.37 84.2904 221.729 84.1749C222.067 84.0667 222.428 83.9705 222.811 83.8879C223.182 83.8079 223.55 83.7469 223.911 83.7058C224.307 83.6606 224.691 83.6351 225.062 83.6304C225.404 83.6262 225.786 83.6419 226.208 83.6786C226.621 83.7147 227 83.7663 227.344 83.831C227.698 83.8976 228.07 83.99 228.462 84.1058C228.854 84.2218 229.206 84.3437 229.518 84.4707C229.87 84.6139 230.209 84.7717 230.531 84.9419L229.009 87.7989C228.77 87.6731 228.53 87.5603 228.288 87.4617C228.014 87.3504 227.763 87.2607 227.54 87.1944C227.308 87.1261 227.043 87.0627 226.745 87.0068C226.449 86.9509 226.175 86.9112 225.924 86.8893C225.682 86.868 225.404 86.8597 225.095 86.8635C224.804 86.8673 224.532 86.8839 224.281 86.9127C224.004 86.944 223.741 86.9869 223.493 87.0402C223.25 87.0929 222.993 87.1622 222.727 87.2477C222.486 87.3252 222.241 87.418 221.993 87.5248C221.734 87.6366 221.5 87.7507 221.292 87.8655C221.062 87.9925 220.839 88.1289 220.628 88.2737C220.419 88.4163 220.213 88.5729 220.011 88.7412C219.82 88.8997 219.629 89.0763 219.438 89.2696C219.25 89.4591 219.076 89.6521 218.917 89.8463C218.755 90.0446 218.613 90.234 218.491 90.4128L218.629 90.4243C219.042 90.4605 219.421 90.5116 219.765 90.5765C220.118 90.6431 220.492 90.7354 220.883 90.8512C221.275 90.9672 221.628 91.0897 221.941 91.2166C222.292 91.3597 222.63 91.5172 222.953 91.6874C223.241 91.8396 223.555 92.028 223.892 92.25C224.221 92.4659 224.517 92.6813 224.782 92.8944C225.07 93.1274 225.342 93.3686 225.594 93.6157C225.844 93.8597 226.089 94.1255 226.331 94.4108C226.561 94.684 226.781 94.9732 226.99 95.2761C227.197 95.5747 227.389 95.8817 227.563 96.1948C227.751 96.5319 227.915 96.8599 228.053 97.1758C228.194 97.4992 228.324 97.84 228.44 98.1966C228.548 98.5328 228.645 98.8919 228.728 99.2729C228.809 99.642 228.87 100.008 228.912 100.367C228.957 100.76 228.982 101.141 228.987 101.51C228.992 101.851 228.976 102.231 228.939 102.65C228.902 103.06 228.851 103.437 228.785 103.78C228.718 104.131 228.626 104.502 228.509 104.891C228.392 105.281 228.269 105.631 228.142 105.941C227.998 106.291 227.84 106.627 227.668 106.948C227.516 107.235 227.326 107.547 227.103 107.883C226.886 108.209 226.669 108.504 226.455 108.767C226.219 109.054 225.977 109.324 225.729 109.575C225.483 109.823 225.216 110.067 224.929 110.307L222.84 107.838ZM230.088 103.627L235.412 100.554L235.46 100.735C235.546 101.06 235.624 101.387 235.694 101.717C235.956 102.959 235.407 104.186 234.303 104.823L228.379 108.243L228.641 107.784C228.688 107.702 228.734 107.618 228.779 107.534C228.974 107.17 229.149 106.796 229.306 106.415C229.463 106.033 229.596 105.643 229.714 105.248C229.836 104.841 229.941 104.43 230.021 104.013C230.042 103.907 230.06 103.8 230.077 103.693L230.088 103.627ZM225.359 91.5056C233.693 86.6942 242.029 81.8831 250.364 77.0719L250.488 77L250.608 77.2066C251.412 78.5887 250.939 80.3703 249.549 81.1724L227.523 93.8863L227.446 93.7913C227.396 93.7295 227.345 93.6681 227.294 93.6075C227.035 93.3008 226.764 93.0051 226.476 92.7242C226.189 92.443 225.887 92.1763 225.574 91.9236C225.498 91.862 225.421 91.8017 225.343 91.7421L225.173 91.6124L225.359 91.5056ZM228.197 94.8175L244.375 85.4788L244.495 85.6854C245.299 87.068 244.826 88.8487 243.436 89.6512L229.583 97.6478L229.525 97.4854C229.428 97.2124 229.323 96.9431 229.206 96.6776C229.044 96.3058 228.861 95.9428 228.663 95.5882C228.541 95.3693 228.412 95.1541 228.277 94.943L228.197 94.8175ZM229.908 98.7833L238.261 93.9582L238.381 94.1639C239.19 95.5457 238.712 97.3279 237.322 98.1302L230.232 102.226L230.24 101.969C230.245 101.811 230.247 101.652 230.245 101.493C230.24 101.069 230.209 100.645 230.161 100.224C230.114 99.8157 230.047 99.4098 229.957 99.0089L229.908 98.7833Z" fill="white"/>
<path d="M144.975 110.714C146.574 110.714 147.675 110.133 148.475 109.253V110.499H151.651V103.819C151.651 102.272 151.262 101.005 150.397 100.145C149.577 99.329 148.28 98.8566 146.487 98.8566C144.521 98.8566 143.268 99.2219 141.994 99.7801L142.814 102.272C143.873 101.885 144.759 101.649 146.012 101.649C147.654 101.649 148.496 102.401 148.496 103.754V103.947C147.675 103.668 146.833 103.475 145.666 103.475C142.923 103.475 141 104.635 141 107.148V107.191C141 109.468 142.793 110.714 144.975 110.714ZM211.013 114C212.979 114 213.93 113.119 214.815 110.778L219.266 98.9853H215.853L213.325 106.826L210.689 98.9853H203.375L199.529 103.174V94.8183H196.245V110.499H199.529V106.997L200.674 105.794L203.698 110.499H207.458L202.9 103.518L207.239 99.0555L211.747 110.542C211.467 111.121 211.164 111.293 210.603 111.293C210.171 111.293 209.631 111.1 209.198 110.842L208.097 113.205C208.939 113.699 209.825 114 211.013 114ZM189.925 110.714C192.431 110.714 194.353 109.554 194.353 106.997V106.954C194.353 104.85 192.474 104.076 190.853 103.539C189.601 103.11 188.499 102.809 188.499 102.164V102.121C188.499 101.67 188.909 101.327 189.708 101.327C190.551 101.327 191.696 101.735 192.841 102.401L194.094 100.145C192.841 99.3074 191.242 98.8136 189.773 98.8136C187.44 98.8136 185.539 100.124 185.539 102.465V102.508C185.539 104.742 187.375 105.494 188.996 105.966C190.27 106.353 191.394 106.589 191.394 107.298V107.341C191.394 107.857 190.962 108.2 190.011 108.2C188.931 108.2 187.613 107.728 186.36 106.826L184.956 108.974C186.49 110.176 188.305 110.714 189.925 110.714ZM176.82 110.714C178.419 110.714 179.521 110.133 180.32 109.253V110.499H183.496V103.819C183.496 102.272 183.107 101.005 182.243 100.145C181.422 99.329 180.126 98.8566 178.333 98.8566C176.366 98.8566 175.113 99.2219 173.839 99.7801L174.66 102.272C175.718 101.885 176.604 101.649 177.857 101.649C179.499 101.649 180.341 102.401 180.341 103.754V103.947C179.521 103.668 178.678 103.475 177.511 103.475C174.768 103.475 172.845 104.635 172.845 107.148V107.191C172.845 109.468 174.638 110.714 176.82 110.714ZM177.814 108.458C176.756 108.458 176.021 107.943 176.021 107.062V107.019C176.021 105.988 176.885 105.429 178.289 105.429C179.089 105.429 179.823 105.601 180.385 105.859V106.439C180.385 107.62 179.348 108.458 177.814 108.458ZM166.309 110.714C169.052 110.714 171.58 108.608 171.58 104.763V104.721C171.58 100.876 169.009 98.7708 166.309 98.7708C164.601 98.7708 163.5 99.5652 162.701 100.639V94.8183H159.417V110.499H162.701V108.995C163.479 109.919 164.559 110.714 166.309 110.714ZM165.466 107.943C163.932 107.943 162.657 106.675 162.657 104.763V104.721C162.657 102.809 163.932 101.542 165.466 101.542C167 101.542 168.296 102.809 168.296 104.721V104.763C168.296 106.697 167 107.943 165.466 107.943ZM153.838 110.499H157.122V94.8183H153.838V110.499ZM145.969 108.458C144.91 108.458 144.176 107.943 144.176 107.062V107.019C144.176 105.988 145.04 105.429 146.444 105.429C147.243 105.429 147.978 105.601 148.54 105.859V106.439C148.54 107.62 147.503 108.458 145.969 108.458Z" fill="white"/>
<defs>
<linearGradient id="paint0_linear_62_199" x1="392" y1="1.19259e-05" x2="7.69677e-06" y2="194.5" gradientUnits="userSpaceOnUse">
<stop/>
<stop offset="1" stop-color="#101010"/>
</linearGradient>
</defs>
</svg>
