<svg width="392" height="192" viewBox="0 0 392 192" fill="none" xmlns="http://www.w3.org/2000/svg">
<path d="M0 0H392V192H0V0Z" fill="url(#paint0_linear_62_193)"/>
<path d="M153.649 122.966C153.175 122.966 152.736 122.882 152.33 122.713C151.925 122.538 151.6 122.258 151.356 121.876C151.119 121.486 151 120.97 151 120.328V117.152C151 116.509 151.119 115.997 151.356 115.615C151.6 115.225 151.925 114.946 152.33 114.778C152.736 114.602 153.179 114.514 153.661 114.514C154.196 114.514 154.666 114.606 155.071 114.789C155.484 114.965 155.805 115.214 156.035 115.535C156.272 115.856 156.39 116.242 156.39 116.693C156.39 116.991 156.329 117.19 156.207 117.289C156.084 117.381 155.897 117.427 155.645 117.427C155.438 117.427 155.262 117.393 155.117 117.324C154.979 117.247 154.907 117.125 154.899 116.957C154.899 116.865 154.884 116.758 154.853 116.636C154.83 116.506 154.781 116.38 154.704 116.257C154.628 116.135 154.509 116.032 154.349 115.948C154.196 115.863 153.982 115.821 153.706 115.821C153.317 115.821 153.018 115.932 152.812 116.154C152.606 116.368 152.502 116.701 152.502 117.152V120.328C152.502 120.787 152.606 121.123 152.812 121.337C153.026 121.551 153.332 121.658 153.729 121.658C153.989 121.658 154.196 121.616 154.349 121.532C154.502 121.448 154.612 121.345 154.681 121.223C154.758 121.093 154.807 120.959 154.83 120.821C154.861 120.684 154.884 120.554 154.899 120.431C154.914 120.248 154.991 120.126 155.129 120.065C155.266 119.996 155.434 119.961 155.633 119.961C155.893 119.961 156.084 120.011 156.207 120.11C156.329 120.21 156.39 120.405 156.39 120.695C156.39 121.154 156.272 121.555 156.035 121.899C155.805 122.243 155.484 122.507 155.071 122.69C154.658 122.874 154.184 122.966 153.649 122.966Z" fill="white"/>
<path d="M163.531 69H211.154V111.429H163.531V69Z" fill="#5C5C5C"/>
<path d="M207.494 102.774C206.063 102.774 204.735 102.522 203.511 102.018C202.288 101.491 201.306 100.654 200.567 99.5087C199.852 98.3399 199.494 96.7931 199.494 94.8682V85.3467C199.494 83.4218 199.852 81.8865 200.567 80.7407C201.306 79.572 202.288 78.7356 203.511 78.2315C204.735 77.7044 206.074 77.4409 207.529 77.4409C209.145 77.4409 210.565 77.7159 211.789 78.2658C213.036 78.7929 214.006 79.5377 214.699 80.5001C215.414 81.4626 215.772 82.6198 215.772 83.9718C215.772 84.8655 215.587 85.4613 215.218 85.7592C214.849 86.0342 214.283 86.1717 213.521 86.1717C212.897 86.1717 212.366 86.0686 211.928 85.8624C211.512 85.6332 211.293 85.2665 211.27 84.7624C211.27 84.4874 211.223 84.1666 211.131 83.8C211.062 83.4104 210.912 83.0323 210.681 82.6656C210.45 82.299 210.092 81.9896 209.607 81.7376C209.145 81.4855 208.499 81.3594 207.668 81.3594C206.49 81.3594 205.589 81.6917 204.966 82.3563C204.343 82.9979 204.031 83.9947 204.031 85.3467V94.8682C204.031 96.2431 204.343 97.2514 204.966 97.893C205.613 98.5346 206.536 98.8555 207.737 98.8555C208.522 98.8555 209.145 98.7294 209.607 98.4772C210.069 98.2253 210.404 97.9159 210.611 97.5493C210.842 97.1597 210.993 96.7587 211.062 96.3462C211.154 95.9337 211.223 95.5442 211.27 95.1775C211.316 94.6275 211.547 94.2609 211.962 94.0776C212.378 93.8713 212.886 93.7682 213.486 93.7682C214.271 93.7682 214.849 93.9172 215.218 94.215C215.587 94.513 215.772 95.0973 215.772 95.9681C215.772 97.343 215.414 98.5461 214.699 99.5773C214.006 100.608 213.036 101.399 211.789 101.949C210.542 102.499 209.111 102.774 207.494 102.774Z" fill="white"/>
<path d="M193.974 102.74C193.674 102.74 193.374 102.648 193.074 102.465C192.797 102.281 192.577 102.018 192.416 101.674L187.498 92.187H184.588V101.124C184.588 101.605 184.357 101.972 183.895 102.224C183.434 102.453 182.914 102.568 182.337 102.568C181.783 102.568 181.263 102.453 180.778 102.224C180.317 101.972 180.086 101.605 180.086 101.124V78.8502C180.086 78.4606 180.213 78.1283 180.467 77.8534C180.744 77.5784 181.102 77.4409 181.54 77.4409H188.398C189.922 77.4409 191.296 77.6586 192.52 78.094C193.766 78.5294 194.759 79.2741 195.498 80.3282C196.237 81.3594 196.606 82.7917 196.606 84.6249C196.606 85.954 196.41 87.0883 196.018 88.0279C195.625 88.9445 195.083 89.6892 194.39 90.2621C193.72 90.8121 192.947 91.2246 192.069 91.4996L196.641 99.8522C196.687 99.9438 196.722 100.047 196.745 100.162C196.768 100.253 196.78 100.334 196.78 100.402C196.78 100.769 196.641 101.136 196.364 101.502C196.087 101.869 195.729 102.167 195.29 102.396C194.875 102.625 194.436 102.74 193.974 102.74ZM184.588 88.681H188.398C189.529 88.681 190.43 88.406 191.1 87.856C191.769 87.306 192.104 86.3665 192.104 85.0374C192.104 83.6625 191.769 82.7114 191.1 82.1844C190.43 81.6344 189.529 81.3594 188.398 81.3594H184.588V88.681Z" fill="white"/>
<path d="M161.271 102.568C160.856 102.568 160.429 102.487 159.99 102.327C159.551 102.167 159.182 101.949 158.882 101.674C158.581 101.399 158.431 101.078 158.431 100.712C158.431 100.643 158.443 100.528 158.466 100.368L165.15 78.747C165.312 78.2428 165.67 77.8647 166.224 77.6126C166.801 77.3606 167.413 77.2346 168.06 77.2346C168.729 77.2346 169.341 77.3606 169.895 77.6126C170.45 77.8647 170.808 78.2428 170.969 78.747L177.654 100.368C177.7 100.528 177.723 100.643 177.723 100.712C177.723 101.055 177.561 101.376 177.238 101.674C176.938 101.949 176.568 102.167 176.13 102.327C175.691 102.487 175.264 102.568 174.848 102.568C174.479 102.568 174.156 102.51 173.878 102.396C173.624 102.258 173.451 102.018 173.359 101.674L172.043 97.1023H164.077L162.795 101.674C162.703 102.018 162.518 102.258 162.241 102.396C161.964 102.51 161.641 102.568 161.271 102.568ZM165.047 93.5962H171.073L168.06 83.0436L165.047 93.5962Z" fill="white"/>
<path d="M218.787 122.897C218.604 122.897 218.432 122.859 218.271 122.782C218.118 122.698 218.042 122.576 218.042 122.415V114.984C218.042 114.824 218.118 114.705 218.271 114.629C218.432 114.553 218.604 114.514 218.787 114.514C218.971 114.514 219.12 114.533 219.234 114.571C219.357 114.61 219.468 114.686 219.567 114.801C219.674 114.908 219.785 115.076 219.9 115.305L222.113 119.583V114.984C222.113 114.816 222.189 114.698 222.342 114.629C222.503 114.553 222.675 114.514 222.858 114.514C223.049 114.514 223.221 114.553 223.375 114.629C223.527 114.698 223.604 114.816 223.604 114.984V122.415C223.604 122.576 223.527 122.698 223.375 122.782C223.221 122.859 223.049 122.897 222.858 122.897C222.683 122.897 222.518 122.862 222.365 122.794C222.22 122.725 222.101 122.603 222.01 122.427L219.533 117.817V122.415C219.533 122.576 219.456 122.698 219.303 122.782C219.15 122.859 218.978 122.897 218.787 122.897Z" fill="white"/>
<path d="M214.06 122.966C213.555 122.966 213.1 122.882 212.695 122.713C212.29 122.538 211.965 122.258 211.72 121.876C211.483 121.486 211.365 120.97 211.365 120.328V117.152C211.365 116.509 211.483 115.997 211.72 115.615C211.965 115.225 212.286 114.946 212.683 114.778C213.089 114.602 213.547 114.514 214.06 114.514C214.564 114.514 215.019 114.602 215.424 114.778C215.837 114.946 216.162 115.225 216.399 115.615C216.636 115.997 216.755 116.509 216.755 117.152V120.328C216.755 120.97 216.636 121.486 216.399 121.876C216.162 122.258 215.837 122.538 215.424 122.713C215.019 122.882 214.564 122.966 214.06 122.966ZM214.06 121.658C214.434 121.658 214.729 121.551 214.943 121.337C215.157 121.123 215.264 120.787 215.264 120.328V117.152C215.264 116.693 215.157 116.357 214.943 116.143C214.729 115.929 214.434 115.821 214.06 115.821C213.685 115.821 213.391 115.929 213.177 116.143C212.97 116.357 212.867 116.693 212.867 117.152V120.328C212.867 120.787 212.97 121.123 213.177 121.337C213.391 121.551 213.685 121.658 214.06 121.658Z" fill="white"/>
<path d="M209.324 122.897C209.14 122.897 208.968 122.859 208.808 122.782C208.655 122.698 208.578 122.576 208.578 122.415V114.984C208.578 114.816 208.655 114.698 208.808 114.629C208.968 114.553 209.14 114.514 209.324 114.514C209.515 114.514 209.687 114.553 209.84 114.629C209.993 114.698 210.069 114.816 210.069 114.984V122.415C210.069 122.576 209.993 122.698 209.84 122.782C209.687 122.859 209.515 122.897 209.324 122.897Z" fill="white"/>
<path d="M204.892 122.897C204.701 122.897 204.529 122.859 204.375 122.782C204.223 122.698 204.146 122.576 204.146 122.415V115.856H202.46C202.315 115.856 202.201 115.787 202.116 115.649C202.032 115.512 201.99 115.355 201.99 115.179C201.99 115.019 202.029 114.87 202.105 114.732C202.181 114.587 202.3 114.514 202.46 114.514H207.311C207.48 114.514 207.598 114.587 207.667 114.732C207.743 114.87 207.782 115.019 207.782 115.179C207.782 115.355 207.74 115.512 207.656 115.649C207.579 115.787 207.464 115.856 207.311 115.856H205.637V122.415C205.637 122.576 205.557 122.698 205.396 122.782C205.243 122.859 205.075 122.897 204.892 122.897Z" fill="white"/>
<path d="M198.816 122.966C198.342 122.966 197.902 122.882 197.498 122.713C197.092 122.538 196.767 122.258 196.523 121.876C196.286 121.486 196.167 120.97 196.167 120.328V117.152C196.167 116.509 196.286 115.997 196.523 115.615C196.767 115.225 197.092 114.946 197.498 114.778C197.902 114.602 198.346 114.514 198.828 114.514C199.363 114.514 199.833 114.606 200.238 114.789C200.651 114.965 200.972 115.214 201.201 115.535C201.439 115.856 201.557 116.242 201.557 116.693C201.557 116.991 201.496 117.19 201.374 117.289C201.251 117.381 201.064 117.427 200.812 117.427C200.605 117.427 200.429 117.393 200.284 117.324C200.147 117.247 200.074 117.125 200.066 116.957C200.066 116.865 200.051 116.758 200.02 116.636C199.998 116.506 199.948 116.38 199.871 116.257C199.795 116.135 199.676 116.032 199.516 115.948C199.363 115.863 199.149 115.821 198.873 115.821C198.484 115.821 198.186 115.932 197.979 116.154C197.773 116.368 197.67 116.701 197.67 117.152V120.328C197.67 120.787 197.773 121.123 197.979 121.337C198.193 121.551 198.499 121.658 198.897 121.658C199.156 121.658 199.363 121.616 199.516 121.532C199.669 121.448 199.779 121.345 199.848 121.223C199.925 121.093 199.975 120.959 199.998 120.821C200.028 120.684 200.051 120.554 200.066 120.431C200.082 120.248 200.158 120.126 200.296 120.065C200.433 119.996 200.601 119.961 200.8 119.961C201.06 119.961 201.251 120.011 201.374 120.11C201.496 120.21 201.557 120.405 201.557 120.695C201.557 121.154 201.439 121.555 201.201 121.899C200.972 122.243 200.651 122.507 200.238 122.69C199.826 122.874 199.351 122.966 198.816 122.966Z" fill="white"/>
<path d="M192.167 122.966C191.648 122.966 191.181 122.882 190.768 122.713C190.355 122.538 190.027 122.258 189.782 121.876C189.537 121.486 189.415 120.97 189.415 120.328V114.984C189.415 114.816 189.491 114.698 189.644 114.629C189.797 114.553 189.969 114.514 190.16 114.514C190.344 114.514 190.512 114.553 190.665 114.629C190.826 114.698 190.906 114.816 190.906 114.984V120.328C190.906 120.779 191.017 121.116 191.238 121.337C191.46 121.551 191.77 121.658 192.167 121.658C192.557 121.658 192.863 121.551 193.085 121.337C193.314 121.116 193.429 120.779 193.429 120.328V114.984C193.429 114.816 193.501 114.698 193.647 114.629C193.8 114.553 193.976 114.514 194.174 114.514C194.358 114.514 194.526 114.553 194.679 114.629C194.839 114.698 194.92 114.816 194.92 114.984V120.328C194.92 120.97 194.797 121.486 194.553 121.876C194.308 122.258 193.976 122.538 193.555 122.713C193.142 122.882 192.679 122.966 192.167 122.966Z" fill="white"/>
<path d="M187.53 122.954C187.431 122.954 187.331 122.924 187.232 122.862C187.141 122.801 187.068 122.713 187.014 122.599L185.386 119.434H184.423V122.415C184.423 122.576 184.346 122.698 184.193 122.782C184.04 122.859 183.868 122.897 183.677 122.897C183.494 122.897 183.322 122.859 183.161 122.782C183.008 122.698 182.932 122.576 182.932 122.415V114.984C182.932 114.854 182.974 114.744 183.058 114.652C183.15 114.56 183.268 114.514 183.413 114.514H185.684C186.189 114.514 186.644 114.587 187.049 114.732C187.462 114.877 187.79 115.126 188.035 115.477C188.28 115.822 188.402 116.299 188.402 116.911C188.402 117.354 188.337 117.733 188.207 118.046C188.077 118.352 187.897 118.6 187.668 118.792C187.446 118.975 187.19 119.113 186.9 119.204L188.414 121.991C188.429 122.021 188.44 122.056 188.448 122.094C188.456 122.125 188.459 122.152 188.459 122.175C188.459 122.297 188.414 122.419 188.322 122.541C188.23 122.664 188.111 122.763 187.966 122.839C187.829 122.916 187.683 122.954 187.53 122.954ZM184.423 118.264H185.684C186.059 118.264 186.357 118.172 186.579 117.989C186.8 117.805 186.911 117.492 186.911 117.049C186.911 116.59 186.8 116.272 186.579 116.097C186.357 115.913 186.059 115.821 185.684 115.821H184.423V118.264Z" fill="white"/>
<path d="M179.245 122.897C179.054 122.897 178.882 122.859 178.729 122.782C178.576 122.698 178.5 122.576 178.5 122.415V115.856H176.814C176.669 115.856 176.554 115.787 176.47 115.649C176.386 115.512 176.344 115.355 176.344 115.179C176.344 115.019 176.382 114.87 176.458 114.732C176.535 114.587 176.653 114.514 176.814 114.514H181.665C181.833 114.514 181.951 114.587 182.02 114.732C182.097 114.87 182.135 115.019 182.135 115.179C182.135 115.355 182.093 115.512 182.009 115.649C181.932 115.787 181.818 115.856 181.665 115.856H179.991V122.415C179.991 122.576 179.91 122.698 179.75 122.782C179.597 122.859 179.429 122.897 179.245 122.897Z" fill="white"/>
<path d="M173.185 123C172.688 123 172.237 122.927 171.832 122.782C171.434 122.637 171.117 122.457 170.88 122.243C170.65 122.021 170.536 121.8 170.536 121.578C170.536 121.471 170.562 121.356 170.616 121.234C170.677 121.104 170.757 120.997 170.857 120.913C170.956 120.821 171.067 120.775 171.189 120.775C171.312 120.775 171.426 120.821 171.533 120.913C171.64 120.997 171.763 121.1 171.9 121.223C172.038 121.337 172.206 121.44 172.405 121.532C172.604 121.616 172.848 121.658 173.139 121.658C173.368 121.658 173.579 121.624 173.77 121.555C173.968 121.479 174.125 121.368 174.24 121.223C174.362 121.077 174.423 120.89 174.423 120.661C174.423 120.416 174.358 120.21 174.228 120.041C174.098 119.873 173.923 119.728 173.701 119.606C173.479 119.483 173.238 119.365 172.978 119.25C172.718 119.136 172.455 119.013 172.187 118.883C171.927 118.753 171.686 118.596 171.465 118.413C171.251 118.23 171.075 118.004 170.937 117.736C170.807 117.469 170.742 117.14 170.742 116.75C170.742 116.322 170.822 115.963 170.983 115.672C171.151 115.382 171.369 115.149 171.637 114.973C171.912 114.789 172.214 114.659 172.543 114.583C172.871 114.499 173.2 114.457 173.529 114.457C173.705 114.457 173.911 114.472 174.148 114.503C174.393 114.525 174.634 114.571 174.871 114.64C175.115 114.709 175.314 114.805 175.467 114.927C175.628 115.042 175.708 115.194 175.708 115.386C175.708 115.47 175.685 115.573 175.639 115.695C175.601 115.817 175.536 115.928 175.444 116.028C175.36 116.127 175.249 116.177 175.111 116.177C174.989 116.177 174.867 116.143 174.745 116.074C174.63 115.997 174.477 115.925 174.286 115.856C174.102 115.779 173.85 115.741 173.529 115.741C173.261 115.741 173.028 115.775 172.829 115.844C172.631 115.913 172.481 116.012 172.382 116.143C172.283 116.265 172.233 116.421 172.233 116.613C172.233 116.812 172.298 116.98 172.428 117.117C172.566 117.255 172.741 117.377 172.955 117.484C173.177 117.591 173.418 117.698 173.678 117.805C173.938 117.912 174.198 118.038 174.458 118.184C174.725 118.321 174.97 118.49 175.192 118.688C175.413 118.887 175.589 119.136 175.719 119.434C175.849 119.724 175.914 120.083 175.914 120.512C175.914 121.054 175.796 121.513 175.559 121.888C175.322 122.255 174.997 122.534 174.584 122.725C174.179 122.908 173.712 123 173.185 123Z" fill="white"/>
<path d="M164.739 122.897C164.555 122.897 164.383 122.859 164.223 122.782C164.07 122.698 163.994 122.576 163.994 122.415V114.984C163.994 114.824 164.07 114.705 164.223 114.629C164.383 114.553 164.555 114.514 164.739 114.514C164.922 114.514 165.072 114.533 165.186 114.571C165.309 114.61 165.419 114.686 165.519 114.801C165.626 114.908 165.737 115.076 165.851 115.305L168.065 119.583V114.984C168.065 114.816 168.141 114.698 168.294 114.629C168.455 114.553 168.627 114.514 168.81 114.514C169.001 114.514 169.173 114.553 169.326 114.629C169.479 114.698 169.556 114.816 169.556 114.984V122.415C169.556 122.576 169.479 122.698 169.326 122.782C169.173 122.859 169.001 122.897 168.81 122.897C168.634 122.897 168.47 122.862 168.317 122.794C168.172 122.725 168.053 122.603 167.961 122.427L165.484 117.817V122.415C165.484 122.576 165.408 122.698 165.255 122.782C165.102 122.859 164.93 122.897 164.739 122.897Z" fill="white"/>
<path d="M160.012 122.966C159.507 122.966 159.052 122.882 158.647 122.713C158.242 122.538 157.917 122.258 157.672 121.876C157.435 121.486 157.316 120.97 157.316 120.328V117.152C157.316 116.509 157.435 115.997 157.672 115.615C157.917 115.225 158.238 114.946 158.635 114.778C159.041 114.602 159.499 114.514 160.012 114.514C160.516 114.514 160.971 114.602 161.376 114.778C161.789 114.946 162.114 115.225 162.351 115.615C162.588 115.997 162.707 116.509 162.707 117.152V120.328C162.707 120.97 162.588 121.486 162.351 121.876C162.114 122.258 161.789 122.538 161.376 122.713C160.971 122.882 160.516 122.966 160.012 122.966ZM160.012 121.658C160.386 121.658 160.68 121.551 160.895 121.337C161.109 121.123 161.216 120.787 161.216 120.328V117.152C161.216 116.693 161.109 116.357 160.895 116.143C160.68 115.929 160.386 115.821 160.012 115.821C159.637 115.821 159.343 115.929 159.128 116.143C158.922 116.357 158.819 116.693 158.819 117.152V120.328C158.819 120.787 158.922 121.123 159.128 121.337C159.343 121.551 159.637 121.658 160.012 121.658Z" fill="white"/>
<path d="M236.293 111.43C236.155 111.43 236.026 111.401 235.906 111.344C235.791 111.281 235.734 111.189 235.734 111.068V105.495C235.734 105.369 235.791 105.28 235.906 105.229C236.026 105.171 236.155 105.143 236.293 105.143C236.436 105.143 236.565 105.171 236.68 105.229C236.795 105.28 236.852 105.369 236.852 105.495V107.835L238.719 105.306C238.793 105.197 238.893 105.143 239.02 105.143C239.117 105.143 239.214 105.171 239.312 105.229C239.415 105.286 239.501 105.358 239.57 105.444C239.639 105.53 239.673 105.621 239.673 105.719C239.673 105.748 239.667 105.782 239.656 105.822C239.645 105.862 239.625 105.9 239.596 105.934L238.065 107.861L239.94 110.716C239.98 110.779 240 110.845 240 110.914C240 111.005 239.966 111.094 239.897 111.18C239.834 111.266 239.75 111.338 239.647 111.395C239.544 111.447 239.438 111.473 239.329 111.473C239.249 111.473 239.174 111.456 239.105 111.421C239.042 111.387 238.985 111.332 238.933 111.258L237.317 108.806L236.852 109.391V111.068C236.852 111.189 236.795 111.281 236.68 111.344C236.565 111.401 236.436 111.43 236.293 111.43Z" fill="white"/>
<path d="M234.397 111.481C234.231 111.481 234.09 111.424 233.976 111.309C233.866 111.189 233.812 111.051 233.812 110.896C233.812 110.736 233.866 110.598 233.976 110.483C234.09 110.369 234.231 110.312 234.397 110.312C234.552 110.312 234.687 110.369 234.801 110.483C234.916 110.598 234.973 110.736 234.973 110.896C234.973 111.051 234.916 111.189 234.801 111.309C234.687 111.424 234.552 111.481 234.397 111.481Z" fill="white"/>
<path d="M230.497 111.43C230.36 111.43 230.231 111.401 230.11 111.344C229.995 111.281 229.938 111.189 229.938 111.068V105.495C229.938 105.398 229.978 105.315 230.059 105.246C230.139 105.177 230.242 105.143 230.368 105.143H232.088C232.455 105.143 232.785 105.206 233.077 105.332C233.376 105.458 233.611 105.664 233.783 105.951C233.955 106.232 234.041 106.608 234.041 107.078V107.129C234.041 107.599 233.952 107.978 233.774 108.265C233.597 108.551 233.353 108.761 233.043 108.893C232.739 109.019 232.398 109.082 232.02 109.082H231.056V111.068C231.056 111.189 230.999 111.281 230.884 111.344C230.769 111.401 230.641 111.43 230.497 111.43ZM231.056 108.204H232.02C232.306 108.204 232.527 108.124 232.682 107.964C232.843 107.797 232.923 107.548 232.923 107.215V107.121C232.923 106.783 232.843 106.533 232.682 106.372C232.527 106.206 232.306 106.123 232.02 106.123H231.056V108.204Z" fill="white"/>
<path d="M228.601 111.481C228.435 111.481 228.294 111.424 228.18 111.309C228.071 111.189 228.017 111.051 228.017 110.896C228.017 110.736 228.071 110.598 228.18 110.483C228.294 110.369 228.435 110.312 228.601 110.312C228.756 110.312 228.891 110.369 229.006 110.483C229.12 110.598 229.178 110.736 229.178 110.896C229.178 111.051 229.12 111.189 229.006 111.309C228.891 111.424 228.756 111.481 228.601 111.481Z" fill="white"/>
<path d="M223.635 111.43C223.497 111.43 223.368 111.401 223.248 111.344C223.133 111.281 223.076 111.189 223.076 111.068V105.495C223.076 105.369 223.133 105.28 223.248 105.229C223.368 105.171 223.497 105.143 223.635 105.143C223.778 105.143 223.907 105.171 224.022 105.229C224.137 105.28 224.194 105.369 224.194 105.495V107.731H226.129V105.495C226.129 105.369 226.186 105.28 226.301 105.229C226.422 105.171 226.551 105.143 226.688 105.143C226.831 105.143 226.961 105.171 227.075 105.229C227.19 105.28 227.247 105.369 227.247 105.495V111.068C227.247 111.189 227.19 111.281 227.075 111.344C226.961 111.401 226.831 111.43 226.688 111.43C226.551 111.43 226.422 111.401 226.301 111.344C226.186 111.281 226.129 111.189 226.129 111.068V108.609H224.194V111.068C224.194 111.189 224.137 111.281 224.022 111.344C223.907 111.401 223.778 111.43 223.635 111.43Z" fill="white"/>
<path d="M220.259 111.507C219.887 111.507 219.548 111.452 219.245 111.344C218.946 111.235 218.708 111.1 218.531 110.939C218.359 110.773 218.272 110.607 218.272 110.44C218.272 110.36 218.292 110.274 218.333 110.183C218.379 110.085 218.439 110.005 218.513 109.942C218.588 109.873 218.671 109.838 218.763 109.838C218.854 109.838 218.941 109.873 219.021 109.942C219.101 110.005 219.193 110.082 219.296 110.174C219.399 110.26 219.525 110.337 219.674 110.406C219.823 110.469 220.007 110.501 220.225 110.501C220.397 110.501 220.555 110.475 220.698 110.423C220.847 110.366 220.965 110.283 221.051 110.174C221.142 110.065 221.188 109.924 221.188 109.753C221.188 109.569 221.14 109.414 221.042 109.288C220.945 109.162 220.813 109.053 220.646 108.961C220.48 108.869 220.299 108.781 220.104 108.695C219.91 108.609 219.712 108.517 219.511 108.419C219.316 108.322 219.135 108.204 218.969 108.067C218.809 107.929 218.677 107.76 218.573 107.559C218.476 107.359 218.427 107.112 218.427 106.82C218.427 106.498 218.488 106.229 218.608 106.011C218.734 105.793 218.897 105.618 219.098 105.487C219.305 105.349 219.531 105.252 219.778 105.194C220.024 105.131 220.271 105.1 220.517 105.1C220.649 105.1 220.804 105.111 220.982 105.134C221.165 105.151 221.346 105.186 221.524 105.237C221.707 105.289 221.856 105.36 221.971 105.452C222.091 105.538 222.151 105.653 222.151 105.796C222.151 105.859 222.134 105.937 222.1 106.028C222.071 106.12 222.023 106.203 221.954 106.278C221.891 106.352 221.807 106.39 221.704 106.39C221.613 106.39 221.521 106.364 221.429 106.312C221.343 106.255 221.228 106.2 221.085 106.149C220.948 106.091 220.758 106.063 220.517 106.063C220.317 106.063 220.142 106.089 219.993 106.14C219.843 106.192 219.732 106.266 219.657 106.364C219.583 106.456 219.546 106.573 219.546 106.716C219.546 106.866 219.594 106.992 219.691 107.095C219.795 107.198 219.927 107.29 220.087 107.37C220.254 107.45 220.434 107.531 220.629 107.611C220.824 107.691 221.019 107.786 221.214 107.895C221.415 107.998 221.598 108.124 221.765 108.273C221.931 108.422 222.063 108.609 222.16 108.832C222.258 109.05 222.306 109.319 222.306 109.641C222.306 110.048 222.218 110.392 222.04 110.673C221.862 110.948 221.618 111.157 221.309 111.3C221.005 111.438 220.655 111.507 220.259 111.507Z" fill="white"/>
<defs>
<linearGradient id="paint0_linear_62_193" x1="392" y1="1.19259e-05" x2="7.69677e-06" y2="194.5" gradientUnits="userSpaceOnUse">
<stop/>
<stop offset="1" stop-color="#101010"/>
</linearGradient>
</defs>
</svg>
