<svg width="392" height="192" viewBox="0 0 392 192" fill="none" xmlns="http://www.w3.org/2000/svg">
<path d="M0 0H392V192H0V0Z" fill="url(#paint0_linear_62_206)"/>
<path d="M207.19 94.0051C207.693 92.8691 207.949 91.6393 207.949 90.3492C207.949 89.0602 207.693 87.8371 207.189 86.7123C206.688 85.5953 205.999 84.6023 205.14 83.7623C204.278 82.9246 203.253 82.2521 202.092 81.7629C200.926 81.2725 199.664 81.0235 198.344 81.0235C197.048 81.0235 195.799 81.2725 194.634 81.7629C193.471 82.2521 192.447 82.9257 191.588 83.7634C190.727 84.6023 190.038 85.5942 189.537 86.7134C189.033 87.8371 188.777 89.0613 188.777 90.3503C188.777 91.6404 189.033 92.8691 189.536 94.0051C190.036 95.1377 190.727 96.1374 191.588 96.9751C192.447 97.814 193.471 98.4875 194.634 98.9756C195.8 99.466 197.048 99.7151 198.344 99.7151C199.664 99.7151 200.926 99.466 202.092 98.9756C203.253 98.4875 204.278 97.8151 205.14 96.9751C205.999 96.1352 206.688 95.1366 207.19 94.0051ZM201.366 97.3571C200.425 97.757 199.408 97.9603 198.342 97.9603C197.278 97.9603 196.269 97.7581 195.341 97.3583C194.406 96.9561 193.576 96.4055 192.874 95.7196C192.171 95.0349 191.606 94.2195 191.195 93.2969C190.784 92.381 190.576 91.3891 190.576 90.3503C190.576 89.3137 190.783 88.3285 191.193 87.4238C191.605 86.5146 192.171 85.7047 192.874 85.0189C193.576 84.3342 194.407 83.7824 195.341 83.3803C196.268 82.9804 197.278 82.7771 198.342 82.7771C199.407 82.7771 200.424 82.9804 201.366 83.3803C202.311 83.7824 203.147 84.3331 203.85 85.0178C204.552 85.7025 205.117 86.5123 205.53 87.4215C205.94 88.3297 206.149 89.3137 206.149 90.3492C206.149 91.3857 205.94 92.3776 205.53 93.2958C205.117 94.2195 204.552 95.0338 203.851 95.7185C203.147 96.4044 202.311 96.955 201.366 97.3571ZM230.879 99.848V99.5665C229.994 99.5665 229.237 98.5992 228.677 97.8252C227.648 96.2591 226.602 94.8339 225.573 93.3204L223.462 90.1883C225.953 89.7304 228.027 88.3062 228.027 85.4199C228.027 82.5347 225.808 81.0212 221.91 81.0212H216.821V81.3027H216.965C217.561 81.3027 217.903 82.2354 217.903 82.7805V97.9815C217.903 98.5445 217.542 99.5475 216.965 99.5475H216.821V99.829H220.953V99.5643H220.809C220.213 99.5643 219.87 98.5612 219.87 97.9983V90.1861C220.303 90.2743 220.809 90.3268 221.242 90.3615C222.974 92.8602 224.706 95.4817 226.457 97.9972C227.125 98.9824 228.063 99.8447 229.615 99.8447H230.879V99.848ZM220.016 89.2389H219.871V81.9908H220.304C223.661 81.9908 226.008 82.642 226.008 85.5271C226.008 88.3777 223.644 89.2925 222.038 89.2925C221.008 89.2925 220.34 89.2746 220.016 89.2389ZM151.201 99.8715H147V99.5889H147.144C147.76 99.5889 148.122 98.6528 148.122 98.0709V82.7648C148.122 82.2175 147.796 81.2826 147.144 81.2826H147V81H158.967V83.6484H158.678C158.678 82.766 158.098 81.9896 156.794 81.9896H150.077V89.2266H155.654C156.559 89.2266 157.248 88.591 157.248 87.8851H157.538V91.4684H157.248C157.248 90.7803 156.596 90.2151 155.654 90.2151H150.077V98.0888C150.077 98.654 150.421 99.6068 151.036 99.6068H151.199V99.8715H151.201ZM179.857 99.8715H167.889V99.5889H168.034C168.649 99.5889 169.011 98.6528 169.011 98.0709V82.7827C169.011 82.2175 168.668 81.2647 168.052 81.2647H167.89V81H172.091V81.2826H171.947C171.331 81.2826 170.968 82.2186 170.968 82.8006V98.2976H178.03C178.61 98.2976 179.587 97.9625 179.587 97.3627V97.2041H179.858L179.857 99.8715ZM242.877 98.0888C242.877 98.654 243.221 99.6068 243.836 99.6068H243.999V99.8715H239.798V99.5889H239.943C240.558 99.5889 240.92 98.6528 240.92 98.0709V82.7827C240.92 82.2175 240.577 81.2647 239.962 81.2647H239.799V81H244V81.2826H243.856C243.24 81.2826 242.878 82.2186 242.878 82.8006L242.877 98.0888Z" fill="white"/>
<path d="M166.385 106.308C166.311 106.136 166.219 105.971 166.111 105.821C166.004 105.674 165.897 105.546 165.791 105.436C165.527 105.174 165.233 104.974 164.918 104.84C164.606 104.708 164.292 104.614 163.982 104.559C163.679 104.506 163.379 104.477 163.088 104.473L162.978 104.472C162.584 104.47 162.294 104.468 162.002 104.473L161.41 104.489C161.341 104.492 161.296 104.494 161.277 104.494C161.268 104.494 161.235 104.492 161.175 104.489L160.64 104.472C160.542 104.47 160.448 104.469 160.359 104.469C160.102 104.469 160.011 104.619 160.011 104.746C160.011 104.876 160.107 105.007 160.294 105.007C160.33 105.007 160.374 105.008 160.422 105.011C160.464 105.014 160.492 105.019 160.525 105.026C160.613 105.044 160.647 105.068 160.653 105.073C160.661 105.087 160.689 105.141 160.702 105.287C160.708 105.347 160.71 105.412 160.713 105.477C160.716 105.547 160.718 105.638 160.718 105.756V108.375C160.718 108.756 160.716 109.093 160.713 109.392C160.71 109.672 160.698 109.906 160.679 110.066C160.665 110.164 160.645 110.248 160.622 110.319L160.591 110.326C160.567 110.334 160.538 110.338 160.508 110.342C160.476 110.347 160.445 110.35 160.415 110.35C160.229 110.35 160.131 110.481 160.131 110.61C160.131 110.738 160.223 110.887 160.48 110.887C160.544 110.887 160.622 110.884 160.712 110.879C160.795 110.874 160.874 110.872 160.969 110.872C161.049 110.865 161.115 110.864 161.17 110.864H161.277C161.296 110.864 161.363 110.869 161.477 110.879C161.605 110.889 161.757 110.901 161.937 110.911C162.111 110.922 162.3 110.933 162.505 110.943C162.714 110.953 162.903 110.959 163.081 110.959C163.445 110.959 163.769 110.927 164.049 110.864C164.328 110.8 164.578 110.717 164.794 110.619C165.005 110.522 165.191 110.414 165.343 110.297C165.49 110.186 165.609 110.083 165.705 109.982C165.825 109.86 165.943 109.713 166.058 109.549C166.17 109.384 166.271 109.199 166.357 109.002C166.444 108.804 166.514 108.584 166.565 108.351C166.617 108.12 166.642 107.868 166.642 107.6C166.642 107.349 166.619 107.114 166.573 106.897C166.524 106.676 166.461 106.477 166.385 106.308ZM165.472 107.846C165.472 108.019 165.46 108.193 165.433 108.362C165.407 108.535 165.367 108.697 165.317 108.844C165.263 109.001 165.199 109.145 165.126 109.271C165.053 109.397 164.973 109.504 164.886 109.589C164.665 109.804 164.399 109.972 164.095 110.089C163.791 110.205 163.458 110.264 163.107 110.264C162.873 110.264 162.683 110.255 162.526 110.237C162.376 110.22 162.252 110.197 162.159 110.17C162.073 110.144 162.009 110.118 161.971 110.094C161.936 110.071 161.916 110.053 161.907 110.041C161.905 110.037 161.901 110.028 161.899 110.014C161.891 109.972 161.884 109.929 161.878 109.881L161.862 109.703C161.857 109.648 161.854 109.6 161.854 109.559C161.854 109.522 161.853 109.45 161.851 109.339C161.848 109.233 161.844 109.106 161.843 108.953C161.84 108.801 161.838 108.63 161.838 108.441V105.884C161.838 105.73 161.84 105.592 161.843 105.464L161.848 105.199C161.85 105.199 161.851 105.199 161.853 105.198C161.888 105.192 161.929 105.186 161.977 105.182C162.025 105.176 162.074 105.173 162.127 105.17C162.173 105.167 162.216 105.166 162.254 105.166C162.491 105.166 162.727 105.175 162.957 105.194C163.171 105.21 163.387 105.249 163.598 105.308C163.807 105.368 164.009 105.454 164.201 105.563C164.394 105.671 164.58 105.817 164.752 105.995C164.826 106.072 164.905 106.168 164.993 106.287C165.077 106.4 165.156 106.534 165.228 106.687C165.301 106.839 165.359 107.013 165.405 107.206C165.449 107.397 165.472 107.607 165.472 107.846ZM172.601 110.611C172.601 110.739 172.509 110.888 172.252 110.888C172.138 110.888 172.024 110.886 171.91 110.884L171.316 110.866C171.252 110.864 171.252 110.864 171.188 110.866L171.155 110.868L170.64 110.885C170.569 110.887 170.509 110.888 170.456 110.888C170.198 110.888 170.108 110.739 170.108 110.611C170.108 110.482 170.205 110.351 170.392 110.351C170.42 110.351 170.451 110.348 170.485 110.343C170.514 110.339 170.544 110.335 170.567 110.328L170.598 110.32C170.621 110.249 170.64 110.166 170.655 110.067C170.675 109.908 170.686 109.673 170.69 109.393C170.692 109.094 170.694 108.757 170.694 108.376V105.757C170.694 105.64 170.692 105.548 170.69 105.478C170.686 105.413 170.683 105.348 170.678 105.288C170.67 105.181 170.647 105.052 170.572 105.035C170.534 105.027 170.498 105.019 170.459 105.015C170.418 105.01 170.388 105.007 170.368 105.007C170.183 105.007 170.084 104.872 170.084 104.746C170.084 104.619 170.175 104.469 170.433 104.469C170.489 104.469 170.556 104.47 170.631 104.472L171.189 104.491C171.253 104.494 171.253 104.494 171.317 104.491L171.351 104.489L171.865 104.472C171.936 104.47 171.997 104.469 172.05 104.469C172.307 104.469 172.398 104.619 172.398 104.746C172.398 104.872 172.298 105.007 172.114 105.007C172.079 105.008 172.055 105.007 171.958 105.026C171.916 105.034 171.885 105.049 171.878 105.061C171.867 105.081 171.84 105.14 171.828 105.285C171.823 105.347 171.819 105.409 171.817 105.477C171.814 105.549 171.812 105.641 171.812 105.756V108.375C171.812 108.756 171.814 109.093 171.817 109.392C171.819 109.67 171.832 109.898 171.854 110.07C171.862 110.163 171.88 110.24 171.908 110.299C171.908 110.299 171.926 110.311 171.98 110.318C172.047 110.331 172.106 110.337 172.169 110.342C172.234 110.348 172.284 110.35 172.319 110.35C172.503 110.351 172.601 110.482 172.601 110.611ZM181.534 110.351C181.498 110.351 181.454 110.348 181.405 110.343C181.368 110.34 181.329 110.331 181.264 110.31C181.246 110.305 181.216 110.295 181.17 110.271C181.157 110.264 181.123 110.244 181.069 110.182C181.026 110.135 180.972 110.061 180.908 109.956C180.842 109.847 180.778 109.713 180.715 109.557L180.411 108.804C180.288 108.505 180.161 108.186 180.03 107.851C179.898 107.516 179.764 107.177 179.628 106.834C179.493 106.492 179.369 106.177 179.259 105.888L179.166 105.649C179.093 105.462 179.03 105.298 178.973 105.157L178.823 104.781C178.771 104.652 178.731 104.564 178.697 104.509C178.611 104.377 178.498 104.358 178.439 104.358C178.331 104.358 178.234 104.418 178.172 104.525C178.142 104.578 178.102 104.673 178.054 104.809L176.208 109.729C176.137 109.914 176.06 110.067 175.976 110.186C175.916 110.271 175.828 110.319 175.689 110.338C175.669 110.342 175.645 110.343 175.602 110.347L175.496 110.351C175.303 110.351 175.202 110.482 175.202 110.611C175.202 110.657 175.22 110.888 175.576 110.888C175.673 110.888 175.769 110.886 175.875 110.884L176.396 110.867C176.49 110.861 176.499 110.861 176.594 110.868L176.975 110.885C177.034 110.887 177.085 110.888 177.129 110.888C177.399 110.888 177.47 110.715 177.47 110.611C177.47 110.486 177.377 110.351 177.169 110.351H177.089C177.058 110.351 177.025 110.342 176.999 110.334C176.999 110.211 177.033 110.057 177.102 109.871L177.542 108.549H179.114L179.826 110.39C179.746 110.448 179.716 110.532 179.716 110.603C179.716 110.725 179.809 110.853 179.984 110.859L180.17 110.872C180.311 110.877 180.448 110.879 180.592 110.883L180.626 110.884C180.753 110.886 180.871 110.887 180.979 110.887H181.455C181.515 110.887 181.57 110.882 181.619 110.87C181.749 110.84 181.836 110.735 181.836 110.61C181.836 110.486 181.742 110.351 181.534 110.351ZM178.847 107.839H177.812L178.311 106.349L178.847 107.839ZM192.797 110.453C192.844 110.5 192.871 110.562 192.869 110.629C192.869 110.748 192.794 110.846 192.671 110.885C192.617 110.903 192.557 110.911 192.48 110.911L192.236 110.91C192.103 110.908 191.977 110.907 191.841 110.904C191.697 110.901 191.559 110.896 191.427 110.891C191.292 110.884 191.183 110.879 191.105 110.873C190.951 110.855 190.897 110.84 190.863 110.829C190.747 110.787 190.674 110.689 190.677 110.577C190.677 110.495 190.713 110.42 190.776 110.371C190.776 110.341 190.774 110.307 190.768 110.267L190.459 106.883L188.608 110.662C188.515 110.844 188.38 110.869 188.309 110.869C188.202 110.869 188.11 110.811 188.034 110.695C187.999 110.639 187.942 110.539 187.863 110.389C187.811 110.296 187.732 110.147 187.63 109.946C187.532 109.745 187.431 109.546 187.329 109.345L186.918 108.544C186.908 108.523 186.874 108.454 186.819 108.342L186.626 107.938C186.55 107.783 186.47 107.613 186.386 107.432C186.311 107.266 186.236 107.11 186.166 106.962L185.896 109.88C185.89 109.938 185.888 109.997 185.888 110.06L185.887 110.266C185.887 110.269 185.887 110.275 185.899 110.292C185.988 110.316 186.043 110.325 186.09 110.331C186.132 110.337 186.165 110.339 186.187 110.339C186.374 110.339 186.47 110.466 186.47 110.593C186.466 110.733 186.369 110.877 186.107 110.877H186.103C186.023 110.876 185.947 110.875 185.871 110.873L185.44 110.854C185.348 110.847 185.348 110.847 185.262 110.853L184.863 110.867C184.771 110.87 184.716 110.87 184.667 110.87C184.544 110.87 184.45 110.838 184.387 110.774C184.315 110.702 184.31 110.617 184.311 110.582C184.311 110.554 184.318 110.475 184.385 110.411C184.439 110.359 184.514 110.333 184.61 110.333C184.63 110.333 184.661 110.331 184.686 110.329C184.726 110.326 184.765 110.321 184.816 110.312C184.865 110.303 184.882 110.286 184.895 110.238C184.926 110.114 184.95 109.984 184.963 109.845L185.571 104.677C185.607 104.37 185.816 104.345 185.88 104.345C185.973 104.345 186.104 104.386 186.201 104.586L188.466 109.175L190.679 104.613C190.772 104.408 190.906 104.364 191.001 104.364C191.18 104.365 191.285 104.501 191.316 104.767L191.841 109.646C191.846 109.72 191.854 109.791 191.869 109.868C191.883 109.941 191.903 110.01 191.929 110.081C191.95 110.138 191.979 110.188 192.019 110.238C192.047 110.271 192.079 110.292 192.123 110.305C192.227 110.338 192.317 110.357 192.394 110.362C192.482 110.369 192.546 110.37 192.588 110.37C192.695 110.374 192.761 110.416 192.797 110.453ZM201.424 105.212C201.12 104.938 200.755 104.724 200.338 104.577C199.924 104.432 199.473 104.358 198.995 104.358C198.602 104.358 198.239 104.408 197.915 104.506C197.594 104.602 197.301 104.738 197.042 104.91C196.789 105.08 196.565 105.28 196.381 105.503C196.203 105.722 196.052 105.957 195.93 106.203C195.807 106.451 195.716 106.702 195.66 106.951C195.603 107.199 195.574 107.44 195.574 107.67C195.574 108.055 195.637 108.443 195.762 108.825C195.891 109.216 196.092 109.577 196.363 109.899C196.64 110.224 196.994 110.492 197.415 110.693C197.843 110.897 198.357 110.999 198.947 110.999C199.465 110.999 199.943 110.907 200.368 110.725C200.796 110.541 201.165 110.29 201.465 109.977C201.765 109.663 202 109.293 202.165 108.877C202.327 108.46 202.41 108.012 202.41 107.544C202.41 107.058 202.323 106.612 202.149 106.218C201.975 105.826 201.731 105.488 201.424 105.212ZM199.166 110.272C198.833 110.272 198.519 110.206 198.235 110.076C197.948 109.947 197.695 109.759 197.483 109.521C197.268 109.278 197.095 108.978 196.972 108.633C196.847 108.279 196.784 107.881 196.784 107.45C196.784 107.043 196.84 106.685 196.949 106.387C197.059 106.09 197.21 105.84 197.399 105.643C197.59 105.449 197.814 105.301 198.07 105.206C198.577 105.017 199.213 104.992 199.777 105.231C200.044 105.344 200.284 105.514 200.49 105.737C200.699 105.96 200.868 106.245 200.996 106.581C201.124 106.924 201.19 107.324 201.19 107.769C201.19 108.31 201.114 108.752 200.962 109.079C200.81 109.405 200.627 109.659 200.418 109.832C200.206 110.006 199.987 110.123 199.769 110.18C199.531 110.24 199.329 110.272 199.166 110.272ZM212.359 104.738C212.359 104.868 212.263 105.008 212.051 105.008C212.021 105.008 211.995 105.008 211.903 105.027C211.824 105.043 211.817 105.067 211.814 105.074C211.796 105.132 211.774 105.256 211.774 105.525L211.757 110.169C211.757 110.303 211.756 110.408 211.753 110.484C211.75 110.572 211.745 110.635 211.738 110.675C211.73 110.749 211.712 110.799 211.679 110.841C211.633 110.906 211.552 110.945 211.465 110.945C211.412 110.945 211.36 110.932 211.302 110.903C211.256 110.876 211.209 110.843 211.159 110.797C211.115 110.761 211.053 110.705 210.981 110.633L210.47 110.133C210.325 109.994 210.149 109.818 209.941 109.608L209.274 108.93C209.036 108.686 208.806 108.45 208.589 108.222C208.351 107.974 208.119 107.727 207.894 107.488C207.667 107.248 207.461 107.024 207.27 106.816L206.865 106.38L206.953 109.593C206.959 109.749 206.968 109.881 206.982 109.979C206.992 110.074 207.008 110.151 207.027 110.207C207.046 110.261 207.063 110.282 207.07 110.29C207.079 110.3 207.093 110.306 207.112 110.313C207.171 110.329 207.234 110.339 207.299 110.344C207.37 110.35 207.424 110.352 207.458 110.352C207.645 110.352 207.741 110.483 207.741 110.612C207.741 110.658 207.724 110.889 207.377 110.889C207.14 110.889 206.943 110.885 206.787 110.877C206.644 110.869 206.551 110.866 206.515 110.866C206.479 110.866 206.388 110.87 206.245 110.877C206.094 110.885 205.923 110.889 205.734 110.889C205.476 110.889 205.386 110.74 205.386 110.612C205.386 110.483 205.483 110.352 205.67 110.352C205.697 110.352 205.74 110.349 205.797 110.344C205.841 110.341 205.886 110.332 205.926 110.318C205.946 110.312 205.969 110.306 205.986 110.221C206.004 110.132 206.027 109.936 206.027 109.512L206.035 104.971C206.035 104.802 206.043 104.685 206.061 104.611C206.12 104.379 206.293 104.361 206.345 104.361C206.475 104.361 206.573 104.45 206.644 104.527C206.698 104.59 206.744 104.638 206.785 104.679C206.817 104.708 206.912 104.81 207.072 104.982C207.227 105.148 207.42 105.353 207.66 105.602C207.898 105.85 208.165 106.13 208.461 106.444C208.756 106.753 209.06 107.074 209.375 107.401L210.555 108.655C210.695 108.803 210.821 108.938 210.934 109.059L210.857 105.594C210.85 105.306 210.823 105.175 210.801 105.117C210.789 105.086 210.767 105.06 210.704 105.043C210.647 105.032 210.58 105.023 210.513 105.019C210.44 105.013 210.391 105.011 210.361 105.011C210.196 105.011 210.077 104.898 210.077 104.74C210.077 104.66 210.114 104.471 210.459 104.471C210.551 104.471 210.645 104.473 210.735 104.476L211.195 104.491C211.25 104.495 211.285 104.496 211.305 104.496C211.347 104.496 211.426 104.491 211.545 104.485C211.671 104.477 211.822 104.472 211.996 104.472C212.263 104.469 212.359 104.609 212.359 104.738ZM222.265 106.308C222.19 106.136 222.098 105.971 221.99 105.821C221.883 105.674 221.777 105.546 221.67 105.436C221.407 105.174 221.112 104.973 220.797 104.84C220.485 104.708 220.171 104.614 219.861 104.559C219.559 104.506 219.258 104.477 218.967 104.473L218.857 104.472C218.461 104.469 218.173 104.468 217.881 104.473L217.289 104.489C217.22 104.492 217.176 104.494 217.156 104.494C217.147 104.494 217.114 104.492 217.054 104.489L216.519 104.472C216.421 104.47 216.327 104.469 216.238 104.469C215.981 104.469 215.89 104.619 215.89 104.746C215.89 104.876 215.986 105.007 216.173 105.007C216.209 105.007 216.253 105.008 216.301 105.011C216.343 105.014 216.371 105.019 216.405 105.026C216.492 105.044 216.526 105.068 216.532 105.073C216.54 105.087 216.568 105.141 216.581 105.287C216.587 105.347 216.589 105.412 216.592 105.477C216.595 105.547 216.597 105.638 216.597 105.756V108.375C216.597 108.756 216.595 109.093 216.592 109.392C216.589 109.672 216.578 109.906 216.558 110.066C216.544 110.164 216.524 110.248 216.501 110.319L216.47 110.326C216.446 110.334 216.417 110.338 216.387 110.342C216.355 110.347 216.324 110.35 216.295 110.35C216.108 110.35 216.01 110.481 216.01 110.61C216.01 110.738 216.102 110.887 216.359 110.887C216.423 110.887 216.501 110.884 216.591 110.879C216.674 110.874 216.753 110.872 216.848 110.872C216.928 110.865 216.995 110.864 217.05 110.864H217.156C217.176 110.864 217.242 110.869 217.357 110.879C217.483 110.889 217.636 110.901 217.816 110.911C217.991 110.922 218.179 110.933 218.384 110.943C218.593 110.953 218.782 110.959 218.961 110.959C219.324 110.959 219.648 110.927 219.929 110.864C220.207 110.8 220.457 110.717 220.673 110.619C220.884 110.522 221.07 110.414 221.222 110.297C221.369 110.186 221.488 110.083 221.584 109.982C221.704 109.86 221.822 109.713 221.937 109.549C222.049 109.384 222.15 109.199 222.236 109.002C222.323 108.804 222.393 108.584 222.444 108.351C222.496 108.12 222.521 107.868 222.521 107.6C222.521 107.349 222.498 107.114 222.452 106.897C222.404 106.676 222.34 106.477 222.265 106.308ZM218.132 105.166C218.369 105.166 218.605 105.175 218.835 105.194C219.049 105.21 219.265 105.249 219.476 105.308C219.685 105.368 219.887 105.454 220.079 105.563C220.273 105.671 220.458 105.817 220.63 105.995C220.704 106.072 220.783 106.168 220.871 106.287C220.955 106.4 221.034 106.534 221.106 106.687C221.179 106.839 221.237 107.013 221.283 107.206C221.329 107.397 221.352 107.608 221.352 107.847C221.352 108.02 221.339 108.194 221.313 108.363C221.286 108.536 221.246 108.698 221.196 108.845C221.142 109.002 221.078 109.146 221.006 109.272C220.932 109.398 220.852 109.505 220.765 109.59C220.544 109.805 220.278 109.973 219.974 110.09C219.67 110.206 219.337 110.265 218.986 110.265C218.752 110.265 218.562 110.256 218.405 110.238C218.255 110.221 218.131 110.198 218.038 110.171C217.952 110.146 217.888 110.119 217.85 110.095C217.815 110.072 217.795 110.054 217.786 110.042C217.784 110.038 217.781 110.029 217.778 110.015C217.77 109.973 217.763 109.93 217.758 109.882L217.742 109.704C217.736 109.65 217.734 109.602 217.734 109.56C217.734 109.523 217.732 109.451 217.73 109.34C217.727 109.234 217.723 109.107 217.722 108.954C217.719 108.802 217.718 108.631 217.718 108.442V105.885C217.718 105.731 217.719 105.593 217.722 105.465L217.727 105.201C217.729 105.201 217.73 105.201 217.732 105.199C217.767 105.193 217.808 105.187 217.856 105.183C217.904 105.177 217.954 105.174 218.006 105.172C218.05 105.167 218.093 105.166 218.132 105.166ZM229.576 109.138C229.576 109.226 229.567 109.329 229.546 109.457C229.525 109.583 229.486 109.715 229.427 109.854C229.368 109.994 229.287 110.13 229.188 110.261C229.086 110.398 228.952 110.522 228.791 110.63C228.6 110.765 228.381 110.863 228.142 110.92C227.915 110.973 227.679 111 227.441 111C227.241 111 227.041 110.984 226.843 110.952C226.64 110.916 226.445 110.857 226.259 110.773C226.14 110.721 226.066 110.646 226.035 110.551C226.022 110.51 226.01 110.448 226.01 110.28C226.01 110.074 226.015 109.893 226.026 109.742C226.036 109.591 226.045 109.486 226.051 109.422C226.07 109.121 226.273 109.099 226.335 109.099C226.468 109.099 226.611 109.193 226.611 109.4C226.611 109.435 226.612 109.474 226.615 109.523C226.618 109.561 226.624 109.607 226.633 109.656C226.658 109.771 226.699 109.867 226.758 109.944C226.817 110.024 226.886 110.086 226.972 110.135C227.067 110.189 227.166 110.226 227.269 110.248C227.545 110.313 227.84 110.299 228.041 110.211C228.16 110.159 228.258 110.094 228.334 110.018C228.41 109.94 228.465 109.853 228.503 109.752C228.543 109.651 228.562 109.547 228.562 109.446C228.562 109.328 228.549 109.221 228.52 109.127C228.496 109.039 228.452 108.947 228.389 108.853C228.327 108.76 228.24 108.66 228.13 108.555C228.017 108.447 227.877 108.324 227.704 108.181L227.341 107.89C227.126 107.717 226.94 107.549 226.789 107.385C226.642 107.223 226.524 107.065 226.438 106.911C226.348 106.748 226.286 106.592 226.255 106.448C226.222 106.305 226.206 106.155 226.206 106.003C226.206 105.761 226.25 105.537 226.341 105.337C226.434 105.132 226.565 104.956 226.734 104.811C226.899 104.668 227.102 104.554 227.336 104.473C227.566 104.397 227.824 104.36 228.106 104.36C228.267 104.36 228.417 104.366 228.55 104.38C228.684 104.395 228.807 104.418 228.919 104.446C228.977 104.457 229.029 104.467 229.063 104.47C229.1 104.477 229.125 104.478 229.147 104.478C229.344 104.478 229.447 104.613 229.447 104.747C229.447 104.771 229.441 104.853 229.431 104.998C229.42 105.126 229.415 105.323 229.415 105.587C229.415 105.932 229.242 105.984 229.139 105.984C229.011 105.984 228.909 105.911 228.877 105.799C228.87 105.774 228.865 105.741 228.857 105.703C228.85 105.65 228.839 105.588 228.822 105.511C228.804 105.424 228.785 105.388 228.78 105.379C228.77 105.36 228.752 105.337 228.724 105.303C228.705 105.28 228.673 105.248 228.605 105.207C228.543 105.17 228.457 105.136 228.356 105.11C228.249 105.081 228.114 105.065 227.952 105.065C227.724 105.065 227.538 105.128 227.385 105.256C227.239 105.378 227.171 105.541 227.171 105.771C227.171 105.861 227.183 105.943 227.208 106.024C227.232 106.098 227.273 106.177 227.333 106.254C227.406 106.349 227.499 106.448 227.611 106.55C227.736 106.664 227.893 106.792 228.08 106.933L228.308 107.11C228.554 107.299 228.76 107.48 228.921 107.646C229.084 107.811 229.216 107.977 229.316 108.137C229.418 108.301 229.489 108.471 229.526 108.638C229.559 108.797 229.576 108.966 229.576 109.138Z" fill="white"/>
<defs>
<linearGradient id="paint0_linear_62_206" x1="392" y1="1.19259e-05" x2="7.69677e-06" y2="194.5" gradientUnits="userSpaceOnUse">
<stop/>
<stop offset="1" stop-color="#101010"/>
</linearGradient>
</defs>
</svg>
