<svg width="392" height="192" viewBox="0 0 392 192" fill="none" xmlns="http://www.w3.org/2000/svg">
<path d="M0 0H392V192H0V0Z" fill="url(#paint0_linear_62_209)"/>
<path d="M158.896 89.008V89.488C158.352 89.504 157.936 89.568 157.648 89.68C157.376 89.776 157.192 89.968 157.096 90.256C157 90.528 156.952 90.96 156.952 91.552V103.456C156.952 104.032 157 104.464 157.096 104.752C157.192 105.04 157.376 105.232 157.648 105.328C157.936 105.424 158.352 105.488 158.896 105.52V106C158.528 105.968 158.064 105.952 157.504 105.952C156.96 105.936 156.408 105.928 155.848 105.928C155.224 105.928 154.64 105.936 154.096 105.952C153.552 105.952 153.112 105.968 152.776 106V105.52C153.32 105.488 153.728 105.424 154 105.328C154.288 105.232 154.48 105.04 154.576 104.752C154.672 104.464 154.72 104.032 154.72 103.456V90.256L154.816 90.328L148.936 106.12H148.552L142.504 90.544V103.216C142.504 103.792 142.552 104.248 142.648 104.584C142.76 104.904 142.968 105.136 143.272 105.28C143.592 105.408 144.064 105.488 144.688 105.52V106C144.4 105.968 144.024 105.952 143.56 105.952C143.096 105.936 142.656 105.928 142.24 105.928C141.84 105.928 141.432 105.936 141.016 105.952C140.616 105.952 140.28 105.968 140.008 106V105.52C140.552 105.488 140.96 105.408 141.232 105.28C141.52 105.136 141.712 104.904 141.808 104.584C141.904 104.248 141.952 103.792 141.952 103.216V91.552C141.952 90.96 141.904 90.528 141.808 90.256C141.712 89.968 141.52 89.776 141.232 89.68C140.96 89.568 140.552 89.504 140.008 89.488V89.008C140.28 89.024 140.616 89.04 141.016 89.056C141.432 89.072 141.84 89.08 142.24 89.08C142.592 89.08 142.952 89.072 143.32 89.056C143.704 89.04 144.024 89.024 144.28 89.008L149.728 103.36L149.32 103.552L154.72 89.08C154.912 89.08 155.096 89.08 155.272 89.08C155.464 89.08 155.656 89.08 155.848 89.08C156.408 89.08 156.96 89.072 157.504 89.056C158.064 89.04 158.528 89.024 158.896 89.008Z" fill="white"/>
<path d="M167.658 88.888L173.514 103.984C173.754 104.592 174.026 105 174.33 105.208C174.634 105.4 174.914 105.504 175.17 105.52V106C174.85 105.968 174.458 105.952 173.994 105.952C173.53 105.936 173.066 105.928 172.602 105.928C171.978 105.928 171.394 105.936 170.85 105.952C170.306 105.952 169.866 105.968 169.53 106V105.52C170.346 105.488 170.866 105.352 171.09 105.112C171.314 104.856 171.266 104.32 170.946 103.504L166.482 91.576L166.866 91.264L162.69 102.112C162.434 102.752 162.282 103.296 162.234 103.744C162.186 104.176 162.226 104.52 162.354 104.776C162.498 105.032 162.73 105.216 163.05 105.328C163.386 105.44 163.802 105.504 164.298 105.52V106C163.85 105.968 163.378 105.952 162.882 105.952C162.402 105.936 161.954 105.928 161.538 105.928C161.138 105.928 160.794 105.936 160.506 105.952C160.234 105.952 159.978 105.968 159.738 106V105.52C160.058 105.44 160.386 105.256 160.722 104.968C161.058 104.664 161.362 104.152 161.634 103.432L167.274 88.888C167.338 88.888 167.402 88.888 167.466 88.888C167.53 88.888 167.594 88.888 167.658 88.888ZM170.586 99.088V99.568H163.434L163.674 99.088H170.586Z" fill="white"/>
<path d="M181.167 88.744C181.967 88.744 182.575 88.84 182.991 89.032C183.407 89.208 183.775 89.408 184.095 89.632C184.287 89.744 184.439 89.832 184.551 89.896C184.679 89.944 184.799 89.968 184.911 89.968C185.071 89.968 185.183 89.88 185.247 89.704C185.327 89.528 185.391 89.264 185.439 88.912H185.991C185.975 89.184 185.951 89.512 185.919 89.896C185.903 90.264 185.887 90.76 185.871 91.384C185.871 91.992 185.871 92.8 185.871 93.808H185.319C185.271 93.04 185.103 92.304 184.815 91.6C184.527 90.896 184.103 90.32 183.543 89.872C182.999 89.424 182.279 89.2 181.383 89.2C180.535 89.2 179.831 89.456 179.271 89.968C178.727 90.48 178.455 91.152 178.455 91.984C178.455 92.704 178.639 93.312 179.007 93.808C179.375 94.288 179.863 94.728 180.471 95.128C181.095 95.512 181.767 95.928 182.487 96.376C183.319 96.888 184.055 97.4 184.695 97.912C185.351 98.408 185.863 98.96 186.231 99.568C186.615 100.176 186.807 100.912 186.807 101.776C186.807 102.8 186.575 103.648 186.111 104.32C185.647 104.992 185.031 105.496 184.263 105.832C183.495 106.168 182.647 106.336 181.719 106.336C180.871 106.336 180.199 106.24 179.703 106.048C179.207 105.856 178.783 105.656 178.431 105.448C178.079 105.224 177.807 105.112 177.615 105.112C177.455 105.112 177.335 105.2 177.255 105.376C177.191 105.552 177.135 105.816 177.087 106.168H176.535C176.567 105.832 176.583 105.44 176.583 104.992C176.599 104.528 176.607 103.928 176.607 103.192C176.623 102.456 176.631 101.528 176.631 100.408H177.183C177.247 101.368 177.423 102.264 177.711 103.096C178.015 103.928 178.471 104.6 179.079 105.112C179.703 105.608 180.527 105.856 181.551 105.856C182.079 105.856 182.575 105.752 183.039 105.544C183.519 105.32 183.911 104.976 184.215 104.512C184.519 104.032 184.671 103.416 184.671 102.664C184.671 102.008 184.511 101.44 184.191 100.96C183.887 100.464 183.455 100.008 182.895 99.592C182.335 99.16 181.679 98.72 180.927 98.272C180.175 97.808 179.471 97.336 178.815 96.856C178.159 96.376 177.631 95.824 177.231 95.2C176.847 94.56 176.655 93.792 176.655 92.896C176.655 91.952 176.863 91.176 177.279 90.568C177.711 89.944 178.271 89.488 178.959 89.2C179.647 88.896 180.383 88.744 181.167 88.744Z" fill="white"/>
<path d="M199.024 106V105.52C199.568 105.488 199.976 105.424 200.248 105.328C200.536 105.232 200.728 105.04 200.824 104.752C200.92 104.464 200.968 104.032 200.968 103.456V91.552C200.968 90.96 200.92 90.528 200.824 90.256C200.728 89.968 200.536 89.776 200.248 89.68C199.976 89.568 199.568 89.504 199.024 89.488V89.008C199.392 89.024 199.856 89.04 200.416 89.056C200.976 89.072 201.528 89.08 202.072 89.08C202.696 89.08 203.28 89.072 203.824 89.056C204.368 89.04 204.808 89.024 205.144 89.008V89.488C204.6 89.504 204.184 89.568 203.896 89.68C203.624 89.776 203.44 89.968 203.344 90.256C203.248 90.528 203.2 90.96 203.2 91.552V103.456C203.2 104.032 203.248 104.464 203.344 104.752C203.44 105.04 203.624 105.232 203.896 105.328C204.184 105.424 204.6 105.488 205.144 105.52V106C204.808 105.968 204.368 105.952 203.824 105.952C203.28 105.936 202.696 105.928 202.072 105.928C201.528 105.928 200.976 105.936 200.416 105.952C199.856 105.952 199.392 105.968 199.024 106ZM188.992 106V105.52C189.536 105.488 189.944 105.424 190.216 105.328C190.504 105.232 190.696 105.04 190.792 104.752C190.888 104.464 190.936 104.032 190.936 103.456V91.552C190.936 90.96 190.888 90.528 190.792 90.256C190.696 89.968 190.504 89.776 190.216 89.68C189.944 89.568 189.536 89.504 188.992 89.488V89.008C189.328 89.024 189.768 89.04 190.312 89.056C190.856 89.072 191.44 89.08 192.064 89.08C192.624 89.08 193.176 89.072 193.72 89.056C194.28 89.04 194.744 89.024 195.112 89.008V89.488C194.568 89.504 194.152 89.568 193.864 89.68C193.592 89.776 193.408 89.968 193.312 90.256C193.216 90.528 193.168 90.96 193.168 91.552V103.456C193.168 104.032 193.216 104.464 193.312 104.752C193.408 105.04 193.592 105.232 193.864 105.328C194.152 105.424 194.568 105.488 195.112 105.52V106C194.744 105.968 194.28 105.952 193.72 105.952C193.176 105.936 192.624 105.928 192.064 105.928C191.44 105.928 190.856 105.936 190.312 105.952C189.768 105.952 189.328 105.968 188.992 106ZM192.328 97.696V97.216H201.808V97.696H192.328Z" fill="white"/>
<path d="M220.356 89.008C220.292 89.616 220.244 90.208 220.212 90.784C220.196 91.344 220.188 91.776 220.188 92.08C220.188 92.464 220.196 92.824 220.212 93.16C220.228 93.496 220.244 93.792 220.26 94.048H219.708C219.596 92.928 219.444 92.048 219.252 91.408C219.06 90.752 218.724 90.28 218.244 89.992C217.764 89.704 217.02 89.56 216.012 89.56H214.716V103.216C214.716 103.856 214.772 104.336 214.884 104.656C215.012 104.976 215.252 105.192 215.604 105.304C215.956 105.416 216.468 105.488 217.14 105.52V106C216.724 105.968 216.196 105.952 215.556 105.952C214.916 105.936 214.268 105.928 213.612 105.928C212.892 105.928 212.212 105.936 211.572 105.952C210.948 105.952 210.444 105.968 210.06 106V105.52C210.732 105.488 211.244 105.416 211.596 105.304C211.948 105.192 212.18 104.976 212.292 104.656C212.42 104.336 212.484 103.856 212.484 103.216V89.56H211.188C210.196 89.56 209.452 89.704 208.956 89.992C208.476 90.28 208.14 90.752 207.948 91.408C207.756 92.048 207.604 92.928 207.492 94.048H206.94C206.972 93.792 206.988 93.496 206.988 93.16C207.004 92.824 207.012 92.464 207.012 92.08C207.012 91.776 206.996 91.344 206.964 90.784C206.948 90.208 206.908 89.616 206.844 89.008C207.516 89.024 208.244 89.04 209.028 89.056C209.828 89.072 210.628 89.08 211.428 89.08C212.228 89.08 212.956 89.08 213.612 89.08C214.268 89.08 214.988 89.08 215.772 89.08C216.572 89.08 217.372 89.072 218.172 89.056C218.972 89.04 219.7 89.024 220.356 89.008Z" fill="white"/>
<path d="M222.063 89.008C222.399 89.024 222.839 89.04 223.383 89.056C223.927 89.072 224.463 89.08 224.991 89.08C225.743 89.08 226.463 89.072 227.151 89.056C227.839 89.04 228.327 89.032 228.615 89.032C229.911 89.032 230.983 89.216 231.831 89.584C232.695 89.952 233.335 90.456 233.751 91.096C234.183 91.72 234.399 92.424 234.399 93.208C234.399 93.688 234.303 94.2 234.111 94.744C233.919 95.288 233.583 95.8 233.103 96.28C232.639 96.76 231.999 97.16 231.183 97.48C230.367 97.784 229.335 97.936 228.087 97.936H225.783V97.456H227.847C228.983 97.456 229.847 97.28 230.439 96.928C231.047 96.56 231.455 96.08 231.663 95.488C231.887 94.88 231.999 94.208 231.999 93.472C231.999 92.208 231.695 91.232 231.087 90.544C230.495 89.84 229.471 89.488 228.015 89.488C227.279 89.488 226.799 89.624 226.575 89.896C226.351 90.168 226.239 90.72 226.239 91.552V103.456C226.239 104.032 226.287 104.464 226.383 104.752C226.479 105.04 226.663 105.232 226.935 105.328C227.223 105.424 227.639 105.488 228.183 105.52V106C227.815 105.968 227.351 105.952 226.791 105.952C226.247 105.936 225.695 105.928 225.135 105.928C224.511 105.928 223.927 105.936 223.383 105.952C222.839 105.952 222.399 105.968 222.063 106V105.52C222.607 105.488 223.015 105.424 223.287 105.328C223.575 105.232 223.767 105.04 223.863 104.752C223.959 104.464 224.007 104.032 224.007 103.456V91.552C224.007 90.96 223.959 90.528 223.863 90.256C223.767 89.968 223.575 89.776 223.287 89.68C223.015 89.568 222.607 89.504 222.063 89.488V89.008ZM225.879 97.528C226.743 97.56 227.423 97.6 227.919 97.648C228.415 97.68 228.815 97.712 229.119 97.744C229.439 97.776 229.743 97.816 230.031 97.864C231.103 98.04 231.871 98.368 232.335 98.848C232.815 99.312 233.167 100.04 233.391 101.032L233.991 103.48C234.151 104.184 234.311 104.696 234.471 105.016C234.647 105.32 234.911 105.464 235.263 105.448C235.535 105.432 235.759 105.344 235.935 105.184C236.127 105.024 236.327 104.808 236.535 104.536L236.895 104.8C236.559 105.296 236.207 105.68 235.839 105.952C235.487 106.208 234.983 106.336 234.327 106.336C233.735 106.336 233.215 106.16 232.767 105.808C232.319 105.456 231.983 104.768 231.759 103.744L231.231 101.344C231.087 100.656 230.919 100.064 230.727 99.568C230.551 99.056 230.295 98.656 229.959 98.368C229.639 98.08 229.159 97.936 228.519 97.936H225.927L225.879 97.528Z" fill="white"/>
<path d="M244.369 88.888L250.225 103.984C250.465 104.592 250.737 105 251.041 105.208C251.345 105.4 251.625 105.504 251.881 105.52V106C251.561 105.968 251.169 105.952 250.705 105.952C250.241 105.936 249.777 105.928 249.313 105.928C248.689 105.928 248.105 105.936 247.561 105.952C247.017 105.952 246.577 105.968 246.241 106V105.52C247.057 105.488 247.577 105.352 247.801 105.112C248.025 104.856 247.977 104.32 247.657 103.504L243.193 91.576L243.577 91.264L239.401 102.112C239.145 102.752 238.993 103.296 238.945 103.744C238.897 104.176 238.937 104.52 239.065 104.776C239.209 105.032 239.441 105.216 239.761 105.328C240.097 105.44 240.513 105.504 241.009 105.52V106C240.561 105.968 240.089 105.952 239.593 105.952C239.113 105.936 238.665 105.928 238.249 105.928C237.849 105.928 237.505 105.936 237.217 105.952C236.945 105.952 236.689 105.968 236.449 106V105.52C236.769 105.44 237.097 105.256 237.433 104.968C237.769 104.664 238.073 104.152 238.345 103.432L243.985 88.888C244.049 88.888 244.113 88.888 244.177 88.888C244.241 88.888 244.305 88.888 244.369 88.888ZM247.297 99.088V99.568H240.145L240.385 99.088H247.297Z" fill="white"/>
<defs>
<linearGradient id="paint0_linear_62_209" x1="392" y1="1.19259e-05" x2="7.69677e-06" y2="194.5" gradientUnits="userSpaceOnUse">
<stop/>
<stop offset="1" stop-color="#101010"/>
</linearGradient>
</defs>
</svg>
