<svg width="392" height="192" viewBox="0 0 392 192" fill="none" xmlns="http://www.w3.org/2000/svg">
<path d="M0 0H392V192H0V0Z" fill="url(#paint0_linear_59_104)"/>
<path d="M189.981 112.032L178.658 118.783V74.1938L189.981 80.8095V112.032Z" fill="white"/>
<path d="M189.981 80.8095L178.658 74.1938L195.875 64L195.917 77.3051L189.981 80.8095Z" fill="white"/>
<path d="M195.875 77.299L195.875 64L213.225 74.1262L201.835 80.8094L195.875 77.299Z" fill="white"/>
<path d="M201.769 87.6953L213.192 94.4461L193.292 106.361V92.826L201.769 87.6953Z" fill="white"/>
<path d="M201.835 80.8094L213.225 74.1262L213.192 94.4461L201.769 87.6953L201.835 80.8094Z" fill="white"/>
<path d="M195.146 88.8666L193.292 89.9909V82.5987L195.146 83.6668V88.8666Z" fill="white"/>
<path d="M195.172 83.687L193.292 82.5987L196.145 80.9125L196.152 83.1086L195.172 83.687Z" fill="white"/>
<path d="M196.145 83.1076L196.145 80.9125L199.021 82.5987L197.133 83.6789L196.145 83.1076Z" fill="white"/>
<path d="M197.133 84.86L199.053 85.9402L195.719 87.9046V85.6704L197.133 84.86Z" fill="white"/>
<path d="M197.133 83.6789L199.021 82.5987L199.053 85.9402L197.133 84.86L197.133 83.6789Z" fill="white"/>
<path d="M153 128.926V124.01H154.808C155.179 124.01 155.49 124.08 155.741 124.221C155.993 124.362 156.184 124.556 156.313 124.802C156.443 125.047 156.508 125.325 156.508 125.637C156.508 125.952 156.443 126.233 156.313 126.477C156.183 126.722 155.99 126.915 155.736 127.056C155.482 127.195 155.169 127.265 154.797 127.265H153.598V126.533H154.679C154.895 126.533 155.073 126.494 155.211 126.417C155.349 126.341 155.451 126.235 155.517 126.101C155.585 125.966 155.618 125.812 155.618 125.637C155.618 125.463 155.585 125.309 155.517 125.176C155.451 125.044 155.348 124.94 155.209 124.867C155.07 124.792 154.892 124.754 154.674 124.754H153.874V128.926H153Z" fill="white"/>
<path d="M161.576 126.468C161.576 126.997 161.479 127.451 161.284 127.829C161.091 128.205 160.827 128.493 160.493 128.693C160.16 128.893 159.783 128.993 159.36 128.993C158.938 128.993 158.56 128.893 158.225 128.693C157.893 128.491 157.629 128.202 157.434 127.826C157.241 127.449 157.145 126.996 157.145 126.468C157.145 125.938 157.241 125.485 157.434 125.109C157.629 124.732 157.893 124.443 158.225 124.243C158.56 124.043 158.938 123.943 159.36 123.943C159.783 123.943 160.16 124.043 160.493 124.243C160.827 124.443 161.091 124.732 161.284 125.109C161.479 125.485 161.576 125.938 161.576 126.468ZM160.698 126.468C160.698 126.095 160.64 125.781 160.526 125.525C160.413 125.267 160.256 125.072 160.055 124.941C159.854 124.808 159.622 124.742 159.36 124.742C159.098 124.742 158.867 124.808 158.666 124.941C158.465 125.072 158.307 125.267 158.192 125.525C158.079 125.781 158.023 126.095 158.023 126.468C158.023 126.841 158.079 127.156 158.192 127.413C158.307 127.67 158.465 127.864 158.666 127.997C158.867 128.128 159.098 128.194 159.36 128.194C159.622 128.194 159.854 128.128 160.055 127.997C160.256 127.864 160.413 127.67 160.526 127.413C160.64 127.156 160.698 126.841 160.698 126.468Z" fill="white"/>
<path d="M165.023 125.361C165.001 125.152 164.908 124.988 164.745 124.872C164.583 124.755 164.373 124.696 164.114 124.696C163.932 124.696 163.775 124.724 163.645 124.78C163.515 124.836 163.415 124.912 163.346 125.008C163.277 125.104 163.242 125.214 163.24 125.337C163.24 125.44 163.263 125.528 163.309 125.604C163.356 125.679 163.419 125.743 163.499 125.796C163.579 125.847 163.668 125.89 163.765 125.925C163.863 125.96 163.961 125.99 164.06 126.014L164.512 126.129C164.694 126.173 164.869 126.231 165.037 126.304C165.206 126.378 165.358 126.471 165.491 126.583C165.626 126.695 165.733 126.83 165.811 126.989C165.89 127.147 165.929 127.333 165.929 127.546C165.929 127.833 165.857 128.087 165.713 128.306C165.568 128.524 165.359 128.694 165.086 128.818C164.815 128.939 164.486 129 164.1 129C163.724 129 163.399 128.941 163.122 128.822C162.848 128.704 162.633 128.531 162.477 128.304C162.323 128.077 162.24 127.8 162.228 127.474H163.087C163.1 127.645 163.152 127.787 163.243 127.901C163.334 128.014 163.452 128.099 163.598 128.155C163.746 128.211 163.91 128.239 164.093 128.239C164.282 128.239 164.449 128.21 164.592 128.153C164.736 128.094 164.849 128.012 164.931 127.908C165.012 127.802 165.054 127.679 165.056 127.538C165.054 127.41 165.017 127.305 164.945 127.221C164.873 127.137 164.771 127.066 164.641 127.01C164.512 126.953 164.362 126.901 164.189 126.857L163.64 126.713C163.243 126.609 162.929 126.451 162.699 126.24C162.469 126.027 162.355 125.744 162.355 125.392C162.355 125.103 162.432 124.849 162.586 124.632C162.741 124.414 162.952 124.245 163.219 124.125C163.486 124.003 163.788 123.943 164.126 123.943C164.468 123.943 164.768 124.003 165.025 124.125C165.284 124.245 165.487 124.412 165.635 124.627C165.782 124.84 165.858 125.084 165.863 125.361H165.023Z" fill="white"/>
<path d="M169.329 125.361C169.307 125.152 169.214 124.988 169.051 124.872C168.889 124.755 168.679 124.696 168.42 124.696C168.238 124.696 168.081 124.724 167.951 124.78C167.821 124.836 167.721 124.912 167.652 125.008C167.583 125.104 167.548 125.214 167.546 125.337C167.546 125.44 167.569 125.528 167.614 125.604C167.662 125.679 167.725 125.743 167.805 125.796C167.885 125.847 167.974 125.89 168.071 125.925C168.169 125.96 168.267 125.99 168.366 126.014L168.818 126.129C169 126.173 169.175 126.231 169.343 126.304C169.512 126.378 169.664 126.471 169.797 126.583C169.932 126.695 170.039 126.83 170.117 126.989C170.196 127.147 170.235 127.333 170.235 127.546C170.235 127.833 170.163 128.087 170.019 128.306C169.874 128.524 169.665 128.694 169.392 128.818C169.121 128.939 168.792 129 168.406 129C168.03 129 167.705 128.941 167.429 128.822C167.154 128.704 166.939 128.531 166.783 128.304C166.629 128.077 166.546 127.8 166.534 127.474H167.393C167.406 127.645 167.458 127.787 167.549 127.901C167.64 128.014 167.758 128.099 167.904 128.155C168.052 128.211 168.216 128.239 168.398 128.239C168.588 128.239 168.755 128.21 168.898 128.153C169.042 128.094 169.155 128.012 169.237 127.908C169.318 127.802 169.36 127.679 169.362 127.538C169.36 127.41 169.323 127.305 169.251 127.221C169.179 127.137 169.077 127.066 168.947 127.01C168.818 126.953 168.668 126.901 168.495 126.857L167.947 126.713C167.549 126.609 167.235 126.451 167.005 126.24C166.775 126.027 166.661 125.744 166.661 125.392C166.661 125.103 166.738 124.849 166.892 124.632C167.047 124.414 167.258 124.245 167.525 124.125C167.792 124.003 168.094 123.943 168.432 123.943C168.774 123.943 169.074 124.003 169.331 124.125C169.59 124.245 169.793 124.412 169.941 124.627C170.088 124.84 170.164 125.084 170.169 125.361H169.329Z" fill="white"/>
<path d="M171.887 124.01V128.926H171.014V124.01H171.887Z" fill="white"/>
<path d="M172.833 128.926V124.01H174.679C175.027 124.01 175.317 124.066 175.548 124.178C175.78 124.288 175.953 124.44 176.068 124.632C176.184 124.824 176.242 125.041 176.242 125.284C176.242 125.485 176.205 125.656 176.129 125.798C176.054 125.939 175.953 126.053 175.826 126.141C175.698 126.229 175.556 126.293 175.399 126.331V126.379C175.571 126.389 175.735 126.442 175.892 126.54C176.05 126.636 176.18 126.772 176.28 126.948C176.38 127.124 176.431 127.337 176.431 127.586C176.431 127.841 176.37 128.07 176.249 128.273C176.128 128.474 175.946 128.634 175.703 128.751C175.46 128.867 175.154 128.926 174.785 128.926H172.833ZM173.706 128.182H174.646C174.963 128.182 175.191 128.12 175.331 127.997C175.472 127.872 175.543 127.712 175.543 127.517C175.543 127.371 175.508 127.24 175.437 127.123C175.366 127.005 175.266 126.912 175.136 126.845C175.005 126.776 174.85 126.741 174.67 126.741H173.706V128.182ZM173.706 126.101H174.571C174.721 126.101 174.857 126.073 174.978 126.017C175.099 125.959 175.194 125.878 175.263 125.774C175.334 125.668 175.369 125.544 175.369 125.4C175.369 125.209 175.303 125.052 175.171 124.929C175.041 124.806 174.847 124.744 174.589 124.744H173.706V126.101Z" fill="white"/>
<path d="M178.065 124.01V128.926H177.191V124.01H178.065Z" fill="white"/>
<path d="M179.01 128.926V124.01H179.884V128.179H182.008V128.926H179.01Z" fill="white"/>
<path d="M183.64 124.01V128.926H182.766V124.01H183.64Z" fill="white"/>
<path d="M184.373 124.756V124.01H188.221V124.756H186.73V128.926H185.864V124.756H184.373Z" fill="white"/>
<path d="M188.963 128.926V124.01H192.099V124.756H189.836V126.091H191.936V126.837H189.836V128.179H192.118V128.926H188.963Z" fill="white"/>
<path d="M195.61 125.361C195.588 125.152 195.496 124.988 195.333 124.872C195.171 124.755 194.961 124.696 194.702 124.696C194.519 124.696 194.363 124.724 194.233 124.78C194.103 124.836 194.003 124.912 193.934 125.008C193.865 125.104 193.83 125.214 193.828 125.337C193.828 125.44 193.851 125.528 193.896 125.604C193.943 125.679 194.007 125.743 194.087 125.796C194.167 125.847 194.256 125.89 194.353 125.925C194.45 125.96 194.548 125.99 194.647 126.014L195.099 126.129C195.282 126.173 195.457 126.231 195.625 126.304C195.794 126.378 195.946 126.471 196.079 126.583C196.214 126.695 196.321 126.83 196.399 126.989C196.478 127.147 196.517 127.333 196.517 127.546C196.517 127.833 196.445 128.087 196.3 128.306C196.156 128.524 195.947 128.694 195.674 128.818C195.402 128.939 195.074 129 194.687 129C194.312 129 193.987 128.941 193.71 128.822C193.436 128.704 193.221 128.531 193.065 128.304C192.911 128.077 192.828 127.8 192.816 127.474H193.675C193.688 127.645 193.739 127.787 193.83 127.901C193.921 128.014 194.04 128.099 194.186 128.155C194.334 128.211 194.498 128.239 194.68 128.239C194.87 128.239 195.037 128.21 195.18 128.153C195.324 128.094 195.437 128.012 195.519 127.908C195.6 127.802 195.642 127.679 195.643 127.538C195.642 127.41 195.605 127.305 195.533 127.221C195.461 127.137 195.359 127.066 195.229 127.01C195.1 126.953 194.95 126.901 194.777 126.857L194.228 126.713C193.831 126.609 193.517 126.451 193.286 126.24C193.057 126.027 192.943 125.744 192.943 125.392C192.943 125.103 193.02 124.849 193.173 124.632C193.329 124.414 193.54 124.245 193.807 124.125C194.074 124.003 194.376 123.943 194.713 123.943C195.056 123.943 195.355 124.003 195.613 124.125C195.872 124.245 196.075 124.412 196.223 124.627C196.37 124.84 196.446 125.084 196.451 125.361H195.61Z" fill="white"/>
<path d="M198.807 128.014V127.305L200.853 124.01H201.432V125.018H201.079L199.701 127.243V127.282H202.557V128.014H198.807ZM201.107 128.926V127.798L201.116 127.481V124.01H201.94V128.926H201.107Z" fill="white"/>
<path d="M205.001 128.926V124.01H206.809C207.18 124.01 207.491 124.08 207.742 124.221C207.995 124.362 208.185 124.556 208.314 124.802C208.444 125.047 208.509 125.325 208.509 125.637C208.509 125.952 208.444 126.233 208.314 126.477C208.184 126.722 207.991 126.915 207.737 127.056C207.483 127.195 207.17 127.265 206.798 127.265H205.599V126.533H206.68C206.896 126.533 207.074 126.494 207.212 126.417C207.35 126.341 207.452 126.235 207.518 126.101C207.586 125.966 207.619 125.812 207.619 125.637C207.619 125.463 207.586 125.309 207.518 125.176C207.452 125.044 207.349 124.94 207.21 124.867C207.071 124.792 206.893 124.754 206.675 124.754H205.875V128.926H205.001Z" fill="white"/>
<path d="M209.35 128.926H208.418L210.115 124.01H211.194L212.894 128.926H211.961L210.673 125.018H210.636L209.35 128.926ZM209.381 126.998H211.924V127.714H209.381V126.998Z" fill="white"/>
<path d="M213.529 128.926V124.01H215.337C215.708 124.01 216.018 124.076 216.269 124.207C216.522 124.338 216.713 124.522 216.842 124.759C216.972 124.994 217.037 125.268 217.037 125.582C217.037 125.897 216.971 126.171 216.839 126.403C216.709 126.633 216.517 126.812 216.262 126.938C216.008 127.063 215.696 127.125 215.325 127.125H214.037V126.386H215.208C215.424 126.386 215.602 126.356 215.74 126.295C215.878 126.233 215.98 126.142 216.046 126.024C216.113 125.904 216.147 125.756 216.147 125.582C216.147 125.408 216.113 125.259 216.046 125.136C215.978 125.011 215.876 124.916 215.737 124.852C215.599 124.787 215.421 124.754 215.203 124.754H214.402V128.926H213.529ZM216.02 126.698L217.214 128.926H216.239L215.066 126.698H216.02Z" fill="white"/>
<path d="M217.629 124.756V124.01H221.477V124.756H219.986V128.926H219.12V124.756H217.629Z" fill="white"/>
<path d="M226.181 124.01V128.926H225.404L223.132 125.577H223.092V128.926H222.218V124.01H223L225.27 127.361H225.312V124.01H226.181Z" fill="white"/>
<path d="M227.133 128.926V124.01H230.269V124.756H228.006V126.091H230.107V126.837H228.006V128.179H230.288V128.926H227.133Z" fill="white"/>
<path d="M231.161 128.926V124.01H232.969C233.339 124.01 233.65 124.076 233.901 124.207C234.154 124.338 234.345 124.522 234.473 124.759C234.604 124.994 234.669 125.268 234.669 125.582C234.669 125.897 234.603 126.171 234.471 126.403C234.341 126.633 234.149 126.812 233.894 126.938C233.64 127.063 233.328 127.125 232.957 127.125H231.669V126.386H232.839C233.056 126.386 233.233 126.356 233.372 126.295C233.51 126.233 233.612 126.142 233.678 126.024C233.745 125.904 233.779 125.756 233.779 125.582C233.779 125.408 233.745 125.259 233.678 125.136C233.61 125.011 233.507 124.916 233.369 124.852C233.231 124.787 233.053 124.754 232.835 124.754H232.034V128.926H231.161ZM233.652 126.698L234.846 128.926H233.871L232.698 126.698H233.652Z" fill="white"/>
<path d="M238.094 125.361C238.072 125.152 237.979 124.988 237.816 124.872C237.654 124.755 237.444 124.696 237.185 124.696C237.003 124.696 236.846 124.724 236.716 124.78C236.586 124.836 236.486 124.912 236.417 125.008C236.348 125.104 236.313 125.214 236.311 125.337C236.311 125.44 236.334 125.528 236.379 125.604C236.427 125.679 236.49 125.743 236.57 125.796C236.65 125.847 236.739 125.89 236.836 125.925C236.934 125.96 237.032 125.99 237.13 126.014L237.583 126.129C237.765 126.173 237.94 126.231 238.108 126.304C238.277 126.378 238.429 126.471 238.562 126.583C238.697 126.695 238.804 126.83 238.882 126.989C238.961 127.147 239 127.333 239 127.546C239 127.833 238.928 128.087 238.783 128.306C238.639 128.524 238.43 128.694 238.157 128.818C237.886 128.939 237.557 129 237.171 129C236.795 129 236.47 128.941 236.193 128.822C235.919 128.704 235.704 128.531 235.548 128.304C235.394 128.077 235.311 127.8 235.299 127.474H236.158C236.171 127.645 236.222 127.787 236.313 127.901C236.405 128.014 236.523 128.099 236.669 128.155C236.817 128.211 236.981 128.239 237.163 128.239C237.353 128.239 237.52 128.21 237.663 128.153C237.807 128.094 237.92 128.012 238.002 127.908C238.083 127.802 238.125 127.679 238.126 127.538C238.125 127.41 238.088 127.305 238.016 127.221C237.944 127.137 237.842 127.066 237.712 127.01C237.583 126.953 237.433 126.901 237.26 126.857L236.711 126.713C236.314 126.609 236 126.451 235.77 126.24C235.54 126.027 235.426 125.744 235.426 125.392C235.426 125.103 235.503 124.849 235.657 124.632C235.812 124.414 236.023 124.245 236.29 124.125C236.557 124.003 236.859 123.943 237.197 123.943C237.539 123.943 237.838 124.003 238.096 124.125C238.355 124.245 238.558 124.412 238.706 124.627C238.853 124.84 238.929 125.084 238.934 125.361H238.094Z" fill="white"/>
<defs>
<linearGradient id="paint0_linear_59_104" x1="392" y1="1.19259e-05" x2="7.69677e-06" y2="194.5" gradientUnits="userSpaceOnUse">
<stop/>
<stop offset="1" stop-color="#101010"/>
</linearGradient>
</defs>
</svg>
