<svg width="392" height="192" viewBox="0 0 392 192" fill="none" xmlns="http://www.w3.org/2000/svg">
<path d="M0 0H392V192H0V0Z" fill="url(#paint0_linear_59_70)"/>
<path d="M219 90.5455H197.238C195.906 90.5455 194.829 91.5787 194.829 92.8561V113.727L219 90.5455Z" fill="white"/>
<path d="M194.829 100.091C194.829 100.904 194.829 101.625 194.829 102.013V113.727V100.091Z" fill="black"/>
<path d="M219 90.5455L206.521 89.1818C206.102 89.9915 205.165 90.5455 204.229 90.5455H219Z" fill="black"/>
<path d="M216.675 66H172V111.349C172 112.664 173.048 113.727 174.343 113.727H195.509L194.347 101.467C194.233 101.544 194.099 101.602 193.966 101.641C193.947 101.641 193.928 101.66 193.909 101.66C193.871 101.679 193.833 101.679 193.794 101.699C193.756 101.718 193.699 101.718 193.661 101.737C193.623 101.737 193.604 101.757 193.566 101.757C193.509 101.776 193.471 101.776 193.413 101.776C193.394 101.776 193.375 101.776 193.356 101.776C193.28 101.776 193.223 101.795 193.147 101.795H186.098C186.003 101.795 185.907 101.795 185.831 101.776C185.812 101.776 185.774 101.776 185.755 101.757C185.698 101.757 185.641 101.737 185.564 101.718C185.526 101.718 185.507 101.699 185.469 101.699C185.412 101.679 185.355 101.66 185.298 101.641C185.279 101.621 185.241 101.621 185.221 101.602C185.145 101.563 185.069 101.525 184.993 101.486C184.859 101.409 184.726 101.331 184.612 101.235C184.555 101.177 184.498 101.138 184.44 101.08C184.421 101.061 184.402 101.041 184.383 101.022C184.345 100.983 184.307 100.945 184.269 100.906C184.25 100.887 184.231 100.848 184.212 100.829C184.174 100.79 184.155 100.751 184.136 100.713C184.116 100.693 184.097 100.654 184.078 100.635C184.059 100.596 184.021 100.558 184.002 100.5C183.983 100.461 183.964 100.442 183.964 100.403C183.945 100.364 183.926 100.306 183.907 100.268C183.888 100.229 183.888 100.21 183.869 100.171C183.85 100.113 183.831 100.074 183.831 100.016C183.831 99.9776 183.812 99.9583 183.812 99.9196C183.793 99.8616 183.793 99.8036 183.774 99.7456C183.774 99.7262 183.774 99.6876 183.755 99.6682C183.755 99.5909 183.735 99.4942 183.735 99.4168V77.9318H204.901C206.197 77.9318 207.244 78.9954 207.244 80.3104V87.4657C207.244 87.5624 207.244 87.6591 207.225 87.7557C207.187 88.0652 207.092 88.3746 206.94 88.626L218.999 89.8443V68.3786C219.037 67.0636 217.97 66 216.675 66Z" fill="white"/>
<path d="M215.599 120.152C215.599 119.706 215.97 119.323 216.653 119.323C217.357 119.323 217.787 119.706 217.806 120.28C217.806 120.344 217.845 120.365 217.884 120.365H218.9C218.939 120.365 218.978 120.322 218.998 120.28C219.056 119.047 217.923 118.431 216.732 118.431C215.169 118.431 214.329 119.345 214.329 120.301C214.329 122.341 217.396 121.767 217.396 122.894C217.396 123.361 217.044 123.723 216.341 123.723C215.481 123.723 214.954 123.298 214.973 122.575C214.973 122.532 214.934 122.49 214.895 122.49H213.821C213.782 122.49 213.723 122.532 213.723 122.575C213.606 123.829 214.719 124.636 216.243 124.636C217.689 124.636 218.646 123.786 218.646 122.639C218.666 120.684 215.599 121.257 215.599 120.152ZM209.23 124.488C209.269 124.488 209.327 124.445 209.327 124.403L209.816 121.98L209.972 121.342C210.304 120.11 210.968 119.536 211.594 119.536C212.238 119.536 212.61 119.982 212.414 120.811L212.18 122.001L211.633 124.424C211.613 124.466 211.652 124.509 211.691 124.509H212.805C212.844 124.509 212.903 124.466 212.903 124.424L213.391 122.001L213.625 120.79C213.938 119.302 213.254 118.473 212.082 118.473C211.359 118.473 210.715 118.92 210.265 119.472L210.461 118.707C210.48 118.665 210.441 118.622 210.402 118.622H209.327C209.269 118.622 209.23 118.665 209.23 118.707L208.605 121.746L207.999 124.445C207.979 124.488 208.019 124.53 208.058 124.53H209.23V124.488ZM204.014 122.235C204.014 120.514 204.717 119.409 205.772 119.409C206.495 119.409 206.924 119.919 206.924 120.854C206.924 122.575 206.221 123.638 205.166 123.638C204.424 123.659 204.014 123.17 204.014 122.235ZM202.724 122.129C202.724 123.68 203.721 124.615 205.127 124.615C206.944 124.615 208.214 123 208.214 120.896C208.214 119.366 207.257 118.41 205.83 118.41C204.014 118.431 202.724 119.982 202.724 122.129ZM201.552 124.488C201.591 124.488 201.65 124.445 201.65 124.403L202.236 121.491L202.861 118.665C202.881 118.622 202.841 118.58 202.802 118.58H201.669C201.63 118.58 201.572 118.622 201.572 118.665L201.005 121.491L200.36 124.403C200.341 124.445 200.38 124.488 200.419 124.488H201.552ZM202.939 117.963C202.978 117.963 203.037 117.921 203.037 117.878L203.271 116.688C203.291 116.646 203.252 116.603 203.213 116.603H202.099C202.06 116.603 202.001 116.646 202.001 116.688L201.767 117.878C201.747 117.921 201.787 117.963 201.826 117.963H202.939ZM200.087 123.531C200.106 123.489 200.067 123.446 200.028 123.468C199.852 123.51 199.657 123.553 199.423 123.553C199.012 123.553 198.817 123.361 198.954 122.766L199.618 119.6H200.868C200.907 119.6 200.966 119.557 200.966 119.515L201.142 118.665C201.161 118.622 201.122 118.58 201.083 118.58H199.852L200.165 117.198C200.185 117.156 200.145 117.113 200.106 117.113H198.973C198.934 117.113 198.876 117.156 198.876 117.198L198.602 118.58H197.977C197.938 118.58 197.879 118.622 197.879 118.665L197.703 119.515C197.684 119.557 197.723 119.6 197.762 119.6H198.368L197.684 122.787C197.391 124.105 198.075 124.573 198.934 124.573C199.227 124.573 199.559 124.488 199.833 124.403C199.891 124.381 199.931 124.339 199.931 124.296L200.087 123.531ZM196.18 124.488C196.219 124.488 196.277 124.445 196.277 124.403L196.863 121.512L197.489 118.665C197.508 118.622 197.469 118.58 197.43 118.58H196.316C196.277 118.58 196.219 118.622 196.219 118.665L196.043 119.557C195.75 118.835 195.164 118.473 194.343 118.473C192.878 118.473 192.018 119.749 191.725 121.13C191.276 123.17 192.097 124.594 193.562 124.594C194.206 124.594 194.734 124.318 195.164 123.85L195.027 124.403C195.007 124.445 195.047 124.488 195.086 124.488H196.18ZM192.995 121.279C193.23 120.174 193.738 119.493 194.5 119.451H194.675C195.535 119.493 195.926 120.322 195.613 121.81C195.34 123.021 194.773 123.638 194.011 123.616C193.073 123.638 192.683 122.745 192.995 121.279ZM190.416 124.488C190.456 124.488 190.514 124.445 190.514 124.403L191.315 120.45L192.175 116.54C192.194 116.497 192.155 116.455 192.116 116.455H191.022C190.983 116.455 190.924 116.497 190.924 116.54L190.143 120.45L189.264 124.403C189.244 124.445 189.283 124.488 189.322 124.488H190.416ZM188.17 120.854H185.435C185.689 119.982 186.236 119.387 187.037 119.387C187.877 119.408 188.307 120.089 188.17 120.854ZM187.994 122.469C187.935 122.469 187.896 122.511 187.896 122.554C187.681 123.298 187.173 123.638 186.431 123.638C185.611 123.638 185.259 123.064 185.259 122.086C185.259 121.98 185.259 121.874 185.278 121.767H189.264C189.303 121.767 189.362 121.725 189.362 121.682C189.772 119.664 188.834 118.41 187.154 118.41C184.966 118.41 184.009 120.365 184.009 122.086C184.009 123.531 184.79 124.615 186.372 124.615C187.955 124.615 188.815 123.68 189.108 122.554C189.127 122.511 189.088 122.469 189.049 122.469H187.994ZM181.215 124.488C181.274 124.488 181.313 124.445 181.313 124.403L181.918 121.576C182.25 120.365 183.227 119.621 184.145 119.621C184.224 119.621 184.321 119.621 184.38 119.642C184.438 119.642 184.478 119.621 184.478 119.557L184.673 118.665C184.692 118.622 184.653 118.558 184.614 118.558C184.536 118.537 184.438 118.516 184.321 118.516C183.579 118.516 182.836 118.898 182.289 119.621L182.524 118.665C182.543 118.622 182.504 118.58 182.465 118.58H181.371C181.332 118.58 181.274 118.622 181.274 118.665L180.688 121.512L180.062 124.403C180.043 124.445 180.082 124.488 180.121 124.488H181.215Z" fill="white"/>
<path d="M178.639 124.388C178.677 124.388 178.714 124.353 178.714 124.318L178.677 121.891L178.714 119.536C178.714 119.501 178.677 119.465 178.639 119.465H177.551C177.514 119.465 177.476 119.501 177.476 119.536L177.495 121.891L177.476 124.318C177.476 124.353 177.514 124.388 177.551 124.388H178.639ZM178.621 118.952C178.658 118.952 178.696 118.916 178.696 118.881V117.889C178.696 117.854 178.658 117.818 178.621 117.818H177.551C177.514 117.818 177.476 117.854 177.476 117.889V118.881C177.476 118.916 177.514 118.952 177.551 118.952H178.621ZM177.008 121.909C177.008 120.475 176.239 119.359 174.794 119.359C174.101 119.359 173.557 119.642 173.2 120.12L173.238 119.518C173.238 119.483 173.2 119.447 173.163 119.447H172.075C172.038 119.447 172 119.483 172 119.518L172.038 122.299L172 125.929C172 125.965 172.038 126 172.075 126H173.163C173.2 126 173.238 125.965 173.238 125.929L173.219 123.786C173.575 124.247 174.101 124.495 174.776 124.495C176.182 124.495 177.008 123.344 177.008 121.909ZM173.163 121.891C173.182 120.776 173.65 120.209 174.476 120.209C175.338 120.209 175.77 120.864 175.77 121.998C175.77 123.06 175.338 123.68 174.438 123.68C173.632 123.662 173.163 123.025 173.163 121.891Z" fill="white"/>
<defs>
<linearGradient id="paint0_linear_59_70" x1="392" y1="1.19259e-05" x2="7.69677e-06" y2="194.5" gradientUnits="userSpaceOnUse">
<stop/>
<stop offset="1" stop-color="#101010"/>
</linearGradient>
</defs>
</svg>
