<svg width="392" height="192" viewBox="0 0 392 192" fill="none" xmlns="http://www.w3.org/2000/svg">
<path d="M0 0H392V192H0V0Z" fill="url(#paint0_linear_56_25)"/>
<path d="M111 107V89.0554H114.409L114.509 91.9064L113.862 91.6908C113.978 91.1796 114.26 90.7085 114.708 90.2772C115.172 89.846 115.745 89.4946 116.425 89.2231C117.105 88.9515 117.818 88.8158 118.565 88.8158C119.709 88.8158 120.721 89.1033 121.601 89.6783C122.497 90.2373 123.202 91.0119 123.716 92.0022C124.247 92.9765 124.512 94.1026 124.512 95.3803C124.512 96.6421 124.255 97.7681 123.741 98.7584C123.227 99.7487 122.521 100.531 121.626 101.106C120.73 101.665 119.709 101.945 118.565 101.945C117.802 101.945 117.072 101.809 116.375 101.538C115.695 101.25 115.114 100.875 114.633 100.412C114.152 99.9484 113.853 99.4532 113.737 98.9261L114.558 98.5907V107H111ZM117.769 99.0219C118.416 99.0219 118.988 98.8702 119.486 98.5667C119.983 98.2633 120.373 97.84 120.655 97.297C120.937 96.7379 121.078 96.0991 121.078 95.3803C121.078 94.6616 120.937 94.0307 120.655 93.4876C120.373 92.9446 119.983 92.5213 119.486 92.2178C119.004 91.9144 118.432 91.7626 117.769 91.7626C117.105 91.7626 116.524 91.9144 116.027 92.2178C115.529 92.5053 115.139 92.9286 114.857 93.4876C114.575 94.0307 114.434 94.6616 114.434 95.3803C114.434 96.0991 114.575 96.7379 114.857 97.297C115.139 97.84 115.529 98.2633 116.027 98.5667C116.524 98.8702 117.105 99.0219 117.769 99.0219Z" fill="white"/>
<path d="M125.741 101.729V89.0551H129.275V101.729H125.741Z" fill="white"/>
<path d="M139.618 101.729L136.359 97.2488L135.363 95.9072L130.038 89.0551H134.318L137.503 93.3916L143.849 101.729H139.618ZM129.988 101.729L135.239 94.8051L137.18 97.0332L134.144 101.729H129.988ZM138.449 96.027L136.558 93.7988L139.37 89.0551H143.525L138.449 96.027Z" fill="white"/>
<path d="M149.784 101.968C148.358 101.968 147.113 101.689 146.052 101.13C144.99 100.571 144.161 99.8042 143.563 98.8299C142.966 97.8555 142.667 96.7375 142.667 95.4757C142.667 94.5014 142.833 93.607 143.165 92.7924C143.497 91.9778 143.962 91.2751 144.559 90.6841C145.156 90.0772 145.861 89.614 146.674 89.2945C147.503 88.9591 148.399 88.7914 149.361 88.7914C150.257 88.7914 151.087 88.9511 151.85 89.2706C152.613 89.574 153.268 90.0133 153.816 90.5883C154.38 91.1473 154.811 91.8102 155.11 92.5768C155.408 93.3434 155.541 94.182 155.508 95.0924L155.483 96.1465H144.907L144.335 94.0622H152.571L152.173 94.4934V93.9664C152.14 93.5351 151.991 93.1438 151.725 92.7924C151.477 92.441 151.153 92.1695 150.755 91.9778C150.357 91.7861 149.909 91.6903 149.411 91.6903C148.681 91.6903 148.059 91.8261 147.545 92.0976C147.047 92.3691 146.666 92.7684 146.4 93.2956C146.135 93.8226 146.002 94.4615 146.002 95.2122C146.002 95.9788 146.168 96.6417 146.5 97.2007C146.848 97.7597 147.329 98.199 147.943 98.5184C148.573 98.8218 149.312 98.9736 150.158 98.9736C150.738 98.9736 151.269 98.8857 151.75 98.7101C152.231 98.5344 152.746 98.2309 153.293 97.7997L154.985 100.076C154.504 100.491 153.973 100.842 153.393 101.13C152.812 101.401 152.215 101.609 151.601 101.753C150.987 101.896 150.382 101.968 149.784 101.968Z" fill="white"/>
<path d="M156.402 101.729V84H159.935V101.729H156.402Z" fill="white"/>
<path d="M166.464 101.968C165.369 101.968 164.382 101.681 163.502 101.106C162.623 100.531 161.926 99.7483 161.412 98.758C160.898 97.7677 160.641 96.6337 160.641 95.356C160.641 94.0781 160.898 92.9521 161.412 91.9778C161.943 90.9876 162.656 90.2129 163.552 89.6539C164.448 89.0789 165.468 88.7914 166.613 88.7914C167.26 88.7914 167.849 88.8872 168.38 89.0789C168.927 89.2546 169.4 89.5022 169.798 89.8216C170.213 90.141 170.561 90.5084 170.843 90.9237C171.125 91.3389 171.324 91.7861 171.44 92.2654L170.694 92.1455V89.0549H174.203V101.729H170.644V98.6861L171.44 98.6143C171.308 99.0615 171.092 99.4847 170.793 99.884C170.495 100.283 170.122 100.643 169.674 100.962C169.242 101.266 168.753 101.513 168.205 101.705C167.658 101.881 167.077 101.968 166.464 101.968ZM167.434 99.0215C168.098 99.0215 168.678 98.8698 169.176 98.5663C169.674 98.2629 170.055 97.8396 170.321 97.2966C170.603 96.7375 170.744 96.0906 170.744 95.356C170.744 94.6372 170.603 94.0063 170.321 93.4632C170.055 92.9202 169.674 92.4969 169.176 92.1935C168.678 91.874 168.098 91.7143 167.434 91.7143C166.787 91.7143 166.215 91.874 165.717 92.1935C165.236 92.4969 164.854 92.9202 164.572 93.4632C164.29 94.0063 164.149 94.6372 164.149 95.356C164.149 96.0906 164.29 96.7375 164.572 97.2966C164.854 97.8396 165.236 98.2629 165.717 98.5663C166.215 98.8698 166.787 99.0215 167.434 99.0215Z" fill="white"/>
<path d="M177.273 101.729V85.8446H180.806V101.729H177.273ZM174.809 92.0976V89.055H183.494V92.0976H174.809Z" fill="white"/>
<path d="M190.179 101.968C188.753 101.968 187.508 101.689 186.447 101.13C185.385 100.571 184.556 99.8042 183.958 98.8299C183.361 97.8555 183.062 96.7375 183.062 95.4757C183.062 94.5014 183.228 93.607 183.56 92.7924C183.892 91.9778 184.357 91.2751 184.954 90.6841C185.551 90.0772 186.256 89.614 187.069 89.2945C187.898 88.9591 188.794 88.7914 189.756 88.7914C190.652 88.7914 191.482 88.9511 192.245 89.2706C193.008 89.574 193.663 90.0133 194.211 90.5883C194.775 91.1473 195.206 91.8102 195.505 92.5768C195.803 93.3434 195.936 94.182 195.903 95.0924L195.878 96.1465H185.302L184.73 94.0622H192.967L192.569 94.4934V93.9664C192.535 93.5351 192.386 93.1438 192.12 92.7924C191.871 92.441 191.548 92.1695 191.15 91.9778C190.752 91.7861 190.304 91.6903 189.806 91.6903C189.076 91.6903 188.454 91.8261 187.94 92.0976C187.442 92.3691 187.061 92.7684 186.795 93.2956C186.53 93.8226 186.397 94.4615 186.397 95.2122C186.397 95.9788 186.563 96.6417 186.895 97.2007C187.243 97.7597 187.724 98.199 188.338 98.5184C188.968 98.8218 189.707 98.9736 190.553 98.9736C191.133 98.9736 191.665 98.8857 192.146 98.7101C192.627 98.5344 193.14 98.2309 193.688 97.7997L195.38 100.076C194.899 100.491 194.368 100.842 193.788 101.13C193.207 101.401 192.61 101.609 191.996 101.753C191.383 101.896 190.777 101.968 190.179 101.968Z" fill="white"/>
<path d="M201.923 101.969C200.779 101.969 199.75 101.689 198.838 101.13C197.926 100.555 197.203 99.7804 196.673 98.8061C196.158 97.8159 195.901 96.6738 195.901 95.3801C195.901 94.1183 196.158 92.9923 196.673 92.002C197.203 91.0117 197.917 90.2291 198.812 89.6541C199.725 89.0791 200.762 88.7916 201.923 88.7916C202.537 88.7916 203.126 88.8875 203.69 89.0791C204.271 89.2548 204.785 89.5024 205.233 89.8218C205.698 90.1413 206.071 90.5006 206.353 90.8999C206.635 91.2833 206.792 91.6906 206.825 92.1218L205.93 92.2656V84H209.463V101.729H206.129L205.98 98.8061L206.676 98.878C206.643 99.2773 206.494 99.6607 206.228 100.028C205.963 100.395 205.606 100.731 205.158 101.034C204.727 101.322 204.229 101.553 203.665 101.729C203.118 101.889 202.537 101.969 201.923 101.969ZM202.719 99.1416C203.383 99.1416 203.964 98.9819 204.462 98.6624C204.959 98.3429 205.349 97.9037 205.631 97.3447C205.913 96.7857 206.054 96.1308 206.054 95.3801C206.054 94.6454 205.913 93.9985 205.631 93.4395C205.349 92.8645 204.959 92.4253 204.462 92.1218C203.964 91.8023 203.383 91.6426 202.719 91.6426C202.056 91.6426 201.475 91.8023 200.978 92.1218C200.497 92.4253 200.115 92.8645 199.833 93.4395C199.568 93.9985 199.435 94.6454 199.435 95.3801C199.435 96.1308 199.568 96.7857 199.833 97.3447C200.115 97.9037 200.497 98.3429 200.978 98.6624C201.475 98.9819 202.056 99.1416 202.719 99.1416Z" fill="white"/>
<path d="M216.89 101.968C215.629 101.968 214.501 101.681 213.505 101.106C212.511 100.531 211.722 99.7483 211.142 98.758C210.578 97.7677 210.296 96.6417 210.296 95.3799C210.296 94.1341 210.578 93.016 211.142 92.0257C211.722 91.0195 212.511 90.2289 213.505 89.6539C214.501 89.0789 215.629 88.7914 216.89 88.7914C218.068 88.7914 219.146 88.999 220.125 89.4143C221.104 89.8296 221.867 90.4046 222.414 91.1393L220.473 93.3914C220.241 93.0879 219.951 92.8164 219.602 92.5768C219.254 92.3212 218.873 92.1216 218.457 91.9778C218.059 91.8341 217.645 91.7622 217.213 91.7622C216.533 91.7622 215.928 91.9219 215.397 92.2413C214.883 92.5448 214.476 92.9681 214.178 93.5112C213.879 94.0542 213.73 94.6771 213.73 95.3799C213.73 96.0667 213.879 96.6816 214.178 97.2247C214.493 97.7517 214.916 98.183 215.447 98.5184C215.977 98.8379 216.575 98.9976 217.238 98.9976C217.669 98.9976 218.076 98.9417 218.457 98.8299C218.839 98.7021 219.196 98.5184 219.528 98.2788C219.876 98.0393 220.191 97.7517 220.473 97.4163L222.389 99.6684C221.825 100.355 221.046 100.914 220.05 101.345C219.055 101.761 218.001 101.968 216.89 101.968Z" fill="white"/>
<path d="M222.912 101.729V84H226.395V91.6426L225.698 91.9301C225.881 91.3551 226.204 90.836 226.669 90.3729C227.15 89.8937 227.722 89.5104 228.386 89.2229C229.05 88.9354 229.746 88.7916 230.476 88.7916C231.472 88.7916 232.301 88.9833 232.964 89.3666C233.645 89.75 234.151 90.3329 234.483 91.1156C234.831 91.8823 235.005 92.8325 235.005 93.9666V101.729H231.472V94.2301C231.472 93.6551 231.389 93.176 231.223 92.7926C231.057 92.4093 230.8 92.1298 230.451 91.9541C230.12 91.7624 229.705 91.6826 229.207 91.7145C228.809 91.7145 228.435 91.7784 228.088 91.9062C227.755 92.018 227.466 92.1857 227.216 92.4093C226.984 92.6329 226.793 92.8885 226.644 93.176C226.511 93.4635 226.445 93.7749 226.445 94.1104V101.729H224.703C224.322 101.729 223.982 101.729 223.682 101.729C223.384 101.729 223.127 101.729 222.912 101.729Z" fill="white"/>
<path d="M236.948 101.729V89.0551H240.481V101.729H236.948Z" fill="white"/>
<path d="M242.539 101.729V84H246.072V101.729H242.539Z" fill="white"/>
<path d="M248.215 101.729V89.0551H251.748V101.729H248.215Z" fill="white"/>
<path d="M260.027 101.968C258.6 101.968 257.356 101.689 256.294 101.13C255.232 100.571 254.403 99.8042 253.806 98.8299C253.209 97.8555 252.91 96.7375 252.91 95.4757C252.91 94.5014 253.075 93.607 253.408 92.7924C253.739 91.9778 254.204 91.2751 254.801 90.6841C255.398 90.0772 256.103 89.614 256.916 89.2945C257.746 88.9591 258.642 88.7914 259.604 88.7914C260.5 88.7914 261.329 88.9511 262.092 89.2706C262.856 89.574 263.51 90.0133 264.058 90.5883C264.622 91.1473 265.054 91.8102 265.352 92.5768C265.651 93.3434 265.783 94.182 265.75 95.0924L265.725 96.1465H255.149L254.577 94.0622H262.814L262.416 94.4934V93.9664C262.382 93.5351 262.233 93.1438 261.968 92.7924C261.719 92.441 261.395 92.1695 260.997 91.9778C260.599 91.7861 260.151 91.6903 259.654 91.6903C258.924 91.6903 258.302 91.8261 257.787 92.0976C257.289 92.3691 256.908 92.7684 256.642 93.2956C256.377 93.8226 256.244 94.4615 256.244 95.2122C256.244 95.9788 256.41 96.6417 256.742 97.2007C257.09 97.7597 257.571 98.199 258.186 98.5184C258.815 98.8218 259.554 98.9736 260.4 98.9736C260.981 98.9736 261.511 98.8857 261.993 98.7101C262.474 98.5344 262.988 98.2309 263.535 97.7997L265.228 100.076C264.747 100.491 264.215 100.842 263.635 101.13C263.054 101.401 262.458 101.609 261.843 101.753C261.229 101.896 260.624 101.968 260.027 101.968Z" fill="white"/>
<path d="M271.049 101.968C269.821 101.968 268.726 101.777 267.764 101.393C266.819 100.994 266.056 100.451 265.475 99.7642L267.665 97.9434C268.179 98.4705 268.751 98.8538 269.382 99.0934C270.012 99.317 270.642 99.4288 271.273 99.4288C271.521 99.4288 271.745 99.4048 271.944 99.357C272.161 99.2931 272.343 99.2132 272.492 99.1173C272.642 99.0056 272.749 98.8778 272.816 98.734C272.899 98.5743 272.94 98.4066 272.94 98.2309C272.94 97.8795 272.791 97.6 272.492 97.3924C272.326 97.3125 272.069 97.2167 271.72 97.1049C271.373 96.9771 270.924 96.8414 270.377 96.6976C269.531 96.49 268.809 96.2504 268.212 95.9788C267.631 95.6913 267.167 95.3719 266.819 95.0205C266.52 94.6851 266.287 94.3258 266.121 93.9424C265.973 93.5431 265.898 93.1039 265.898 92.6247C265.898 92.0497 266.03 91.5306 266.296 91.0674C266.562 90.5883 266.927 90.181 267.391 89.8456C267.872 89.5101 268.419 89.2546 269.033 89.0789C269.647 88.8872 270.294 88.7914 270.974 88.7914C271.655 88.7914 272.318 88.8713 272.965 89.031C273.612 89.1907 274.209 89.4223 274.757 89.7258C275.321 90.0133 275.81 90.3567 276.225 90.756L274.334 92.7684C274.035 92.4969 273.695 92.2493 273.313 92.0257C272.948 91.8021 272.566 91.6264 272.169 91.4986C271.771 91.3709 271.414 91.307 271.098 91.307C270.816 91.307 270.559 91.331 270.327 91.3789C270.111 91.4268 269.929 91.4986 269.78 91.5945C269.63 91.6903 269.514 91.8181 269.431 91.9778C269.365 92.1216 269.332 92.2813 269.332 92.457C269.332 92.6327 269.373 92.8004 269.456 92.9601C269.556 93.1198 269.688 93.2556 269.854 93.3674C270.037 93.4632 270.302 93.575 270.651 93.7028C271.015 93.8306 271.505 93.9744 272.119 94.1341C272.915 94.3417 273.587 94.5733 274.135 94.8288C274.698 95.0844 275.146 95.3799 275.478 95.7153C275.76 96.0028 275.967 96.3302 276.1 96.6976C276.233 97.065 276.299 97.4722 276.299 97.9194C276.299 98.7021 276.068 99.4048 275.603 100.028C275.155 100.635 274.533 101.114 273.736 101.465C272.94 101.801 272.044 101.968 271.049 101.968Z" fill="white"/>
<path d="M252.014 86.2736C252.014 87.3535 251.137 88.2289 250.055 88.2289C248.973 88.2289 248.097 87.3535 248.097 86.2736C248.097 85.1937 248.973 84.3183 250.055 84.3183C251.137 84.3183 252.014 85.1937 252.014 86.2736Z" fill="white"/>
<path d="M281 100.352C281 101.432 280.123 102.307 279.041 102.307C277.96 102.307 277.083 101.432 277.083 100.352C277.083 99.272 277.96 98.3966 279.041 98.3966C280.123 98.3966 281 99.272 281 100.352Z" fill="#00CEDB"/>
<path d="M240.654 86.2736C240.654 87.3535 239.778 88.2289 238.696 88.2289C237.614 88.2289 236.737 87.3535 236.737 86.2736C236.737 85.1937 237.614 84.3183 238.696 84.3183C239.778 84.3183 240.654 85.1937 240.654 86.2736Z" fill="white"/>
<defs>
<linearGradient id="paint0_linear_56_25" x1="392" y1="1.19259e-05" x2="7.69677e-06" y2="194.5" gradientUnits="userSpaceOnUse">
<stop/>
<stop offset="1" stop-color="#101010"/>
</linearGradient>
</defs>
</svg>
