<svg width="392" height="192" viewBox="0 0 392 192" fill="none" xmlns="http://www.w3.org/2000/svg">
<path d="M0 0H392V192H0V0Z" fill="url(#paint0_linear_59_140)"/>
<path d="M136.884 81C141.057 81 145.229 81 149.528 81C149.528 83.925 149.528 86.85 149.528 89.8636C152.56 89.7655 152.56 89.7654 153.628 89.1818C155.607 88.932 157.113 89.2162 158.881 90.114C159.55 90.6331 159.797 91.1361 160.121 91.9091C158.571 92.9197 158.571 92.9197 157.729 93.2727C157.003 93.017 157.003 93.017 156.362 92.5909C155.45 92.5338 155.45 92.5338 154.653 92.5909C154.484 92.9284 154.484 92.9284 154.312 93.2727C154.51 93.3307 154.708 93.3887 154.912 93.4485C156.932 94.0737 158.533 94.8149 160.099 96.277C160.666 97.4412 160.466 98.1827 160.121 99.4091C158.668 101.171 157.447 101.84 155.19 102.084C153.304 102.196 151.416 102.154 149.528 102.136C149.528 105.061 149.528 107.986 149.528 111C145.355 111 141.183 111 136.884 111C136.884 108.075 136.884 105.15 136.884 102.136C133.953 102.136 131.021 102.136 128 102.136C128 98.0864 128 94.0364 128 89.8636C130.932 89.8636 133.864 89.8636 136.884 89.8636C136.884 86.9386 136.884 84.0136 136.884 81ZM139.618 83.7273C139.618 86.6523 139.618 89.5773 139.618 92.5909C136.686 92.5909 133.754 92.5909 130.734 92.5909C130.734 94.8409 130.734 97.0909 130.734 99.4091C133.666 99.4091 136.597 99.4091 139.618 99.4091C139.618 102.334 139.618 105.259 139.618 108.273C141.986 108.273 144.354 108.273 146.794 108.273C146.625 103.885 146.625 103.885 146.452 99.4091C147.693 99.4091 148.933 99.4091 150.211 99.4091C151.303 98.6349 151.303 98.6349 151.92 97.7045C152.096 97.81 152.272 97.9155 152.454 98.0241C153.524 98.4899 154.519 98.6202 155.678 98.7273C155.904 98.6148 156.129 98.5023 156.362 98.3864C156.003 97.3471 155.74 97.0558 154.751 96.526C154.206 96.2973 154.206 96.2973 153.649 96.0639C151.359 94.9938 151.359 94.9938 150.809 93.6562C150.724 93.3047 150.64 92.9531 150.553 92.5909C149.2 92.5909 147.846 92.5909 146.452 92.5909C146.565 89.6659 146.678 86.7409 146.794 83.7273C144.426 83.7273 142.058 83.7273 139.618 83.7273Z" fill="white"/>
<path d="M219.92 89.1818C221.4 89.1818 222.881 89.1818 224.362 89.1818C224.622 89.17 224.882 89.1581 225.149 89.1459C226.89 89.0905 228.065 89.0693 229.487 90.2046C229.706 90.0358 229.924 89.8671 230.149 89.6932C231.563 89.0027 232.724 88.9423 234.271 89.1818C235.777 89.8774 236.521 90.6058 237.145 92.1422C237.591 93.8913 237.449 95.7214 237.411 97.5128C237.404 98.1308 237.404 98.1308 237.397 98.7612C237.385 99.7727 237.366 100.784 237.347 101.795C236.106 101.795 234.866 101.795 233.588 101.795C233.475 98.758 233.362 95.7205 233.246 92.5909C232.57 92.7034 231.893 92.8159 231.196 92.9318C230.757 93.8087 230.782 94.4895 230.746 95.47C230.732 95.8369 230.718 96.2039 230.703 96.582C230.689 96.9665 230.676 97.351 230.662 97.7472C230.647 98.1343 230.633 98.5215 230.617 98.9204C230.581 99.8787 230.547 100.837 230.513 101.795C229.272 101.795 228.032 101.795 226.754 101.795C226.585 97.408 226.585 97.408 226.412 92.9318C225.961 92.8193 225.51 92.7068 225.045 92.5909C224.412 92.9369 224.412 92.9369 224.02 93.6136C223.848 94.5023 223.848 94.5023 223.845 95.5033C223.833 95.8691 223.821 96.235 223.809 96.6119C223.801 96.9936 223.793 97.3752 223.785 97.7685C223.773 98.1541 223.762 98.5397 223.75 98.937C223.722 99.8897 223.699 100.843 223.678 101.795C222.438 101.795 221.198 101.795 219.92 101.795C219.92 97.633 219.92 93.4705 219.92 89.1818Z" fill="white"/>
<path d="M200.784 85.7727C202.024 85.7727 203.265 85.7727 204.543 85.7727C204.543 87.0102 204.543 88.2477 204.543 89.5227C205.332 89.5227 206.121 89.5227 206.935 89.5227C206.935 90.6477 206.935 91.7727 206.935 92.9318C206.145 92.9318 205.356 92.9318 204.543 92.9318C204.712 95.4631 204.712 95.4631 204.884 98.0455C205.448 98.0455 206.012 98.0455 206.593 98.0455C207.276 100.304 207.276 100.304 207.276 101.455C205.659 101.992 204.353 101.975 202.749 101.391C201.652 100.67 201.323 100.261 200.784 99.0682C200.663 98.0061 200.687 96.9605 200.72 95.8935C200.727 95.466 200.727 95.466 200.734 95.0299C200.746 94.3304 200.764 93.6311 200.784 92.9318C200.22 92.9318 199.656 92.9318 199.075 92.9318C198.906 92.0881 198.906 92.0881 198.734 91.2273C198.395 92.071 198.395 92.071 198.05 92.9318C197.655 92.9509 197.655 92.9509 197.252 92.9704C196.738 93.0041 196.738 93.0041 196.213 93.0384C195.873 93.0581 195.532 93.0779 195.18 93.0983C194.887 93.1558 194.594 93.2134 194.291 93.2727C193.554 94.376 193.511 94.7536 193.466 96.036C193.447 96.5386 193.447 96.5386 193.426 97.0514C193.411 97.5751 193.411 97.5751 193.394 98.1094C193.375 98.639 193.375 98.639 193.354 99.1794C193.322 100.051 193.293 100.923 193.266 101.795C192.647 101.805 192.028 101.811 191.408 101.817C191.063 101.821 190.718 101.825 190.363 101.829C189.507 101.795 189.507 101.795 189.166 101.455C189.131 100.574 189.118 99.7035 189.12 98.8232C189.12 98.5596 189.12 98.2961 189.119 98.0245C189.119 97.4663 189.12 96.908 189.121 96.3497C189.123 95.4923 189.121 94.6349 189.119 93.7774C189.119 93.2363 189.12 92.6952 189.12 92.1541C189.12 91.896 189.119 91.6378 189.118 91.3718C189.126 89.5619 189.126 89.5619 189.507 89.1818C190.141 89.1572 190.775 89.1532 191.408 89.1605C191.754 89.1636 192.1 89.1667 192.456 89.1698C192.857 89.1758 192.857 89.1758 193.266 89.1818C193.379 89.4068 193.492 89.6318 193.608 89.8636C193.804 89.7525 193.999 89.6413 194.201 89.5267C196.177 88.6463 198.706 89.2213 200.784 89.5227C200.784 88.2852 200.784 87.0477 200.784 85.7727Z" fill="white"/>
<path d="M260.241 83.3864C261.482 83.3864 262.722 83.3864 264 83.3864C264 89.4614 264 95.5364 264 101.795C254.472 101.795 254.472 101.795 252.503 99.8872C250.96 97.9564 250.758 96.3636 251.015 93.9545C251.585 92.1402 252.464 90.8927 254.09 89.8636C255.357 89.2662 256.345 89.097 257.742 89.1179C258.231 89.1212 258.231 89.1212 258.729 89.1246C259.558 89.1818 259.558 89.1818 260.241 89.5227C260.241 87.4977 260.241 85.4727 260.241 83.3864ZM255.116 93.9545C254.799 95.4364 254.853 96.6093 255.671 97.8963C256.745 98.545 257.296 98.6129 258.533 98.3864C259.6 97.7762 259.6 97.7762 260.241 96.6818C260.352 95.5915 260.232 94.6566 259.9 93.6136C259.184 92.7725 258.775 92.6343 257.7 92.4418C256.446 92.6552 255.944 92.9862 255.116 93.9545Z" fill="white"/>
<path d="M161.146 89.1818C170.696 89.1818 170.696 89.1818 172.709 91.1647C172.895 91.4593 172.895 91.4593 173.084 91.7599C173.214 91.9573 173.344 92.1546 173.478 92.3579C174.435 94.1237 174.441 96.2227 173.921 98.1333C173.255 99.6724 172.348 100.687 170.883 101.51C169.171 102.082 167.366 101.971 165.588 101.795C165.362 101.683 165.137 101.57 164.905 101.455C164.905 103.142 164.905 104.83 164.905 106.568C163.664 106.568 162.424 106.568 161.146 106.568C161.146 100.831 161.146 95.0932 161.146 89.1818ZM165.246 93.6136C164.875 95.146 164.708 95.9027 165.353 97.3423C166.103 98.2566 166.416 98.365 167.595 98.4929C168.668 98.4631 168.668 98.4631 169.475 97.8963C170.293 96.6093 170.346 95.4364 170.03 93.9545C169.202 92.9862 168.699 92.6552 167.446 92.4418C166.386 92.6315 165.962 92.7981 165.246 93.6136Z" fill="white"/>
<path d="M184.122 89.4947C185.942 90.5518 187.462 91.9226 188.141 93.9545C188.335 95.9068 188.224 97.3903 187.116 99.0681C185.791 100.604 184.54 101.631 182.486 101.917C180.169 102.035 178.603 101.648 176.864 100.091C175.596 98.7911 174.891 97.4993 174.767 95.675C174.9 93.6996 175.794 91.9159 177.206 90.5454C179.279 89.0817 181.707 88.5069 184.122 89.4947ZM179.256 93.6136C178.885 94.657 178.787 95.5825 178.915 96.6817C179.527 97.8047 179.527 97.8047 180.623 98.3863C181.844 98.3863 182.633 98.2997 183.656 97.6192C184.165 96.8288 184.315 96.2573 184.382 95.3181C184.102 94.144 183.843 93.7207 182.866 92.9957C181.37 92.3043 180.474 92.5585 179.256 93.6136Z" fill="white"/>
<path d="M246.231 89.1819C247.9 89.9083 248.682 90.898 249.415 92.5111C249.803 93.777 249.823 95.0327 249.648 96.341C249.307 96.6819 249.307 96.6819 248.609 96.7206C248.31 96.7188 248.011 96.717 247.703 96.7152C247.381 96.7141 247.058 96.713 246.726 96.7118C246.386 96.709 246.047 96.7061 245.697 96.7032C245.357 96.7016 245.016 96.7001 244.665 96.6985C243.82 96.6945 242.975 96.6889 242.131 96.6819C242.578 97.7462 242.578 97.7462 243.497 98.3864C245.221 98.4899 246.946 98.4916 248.623 98.0455C248.736 99.058 248.849 100.071 248.965 101.114C246.569 101.963 244.104 102.224 241.661 101.412C240.191 100.365 239.29 99.2807 238.585 97.6194C238.232 95.5049 238.314 93.7008 239.312 91.7813C241.413 89.3357 243.087 88.8758 246.231 89.1819ZM242.686 92.5484C242.096 93.1659 242.096 93.1659 242.131 93.6137C243.484 93.6137 244.837 93.6137 246.231 93.6137C245.711 92.1788 245.711 92.1788 244.565 91.9091C243.465 91.7991 243.465 91.7991 242.686 92.5484Z" fill="white"/>
<path d="M215.734 89.6293C216.654 90.1058 217.45 90.5285 218.211 91.2273C218.211 91.4523 218.211 91.6773 218.211 91.9091C217.293 92.6761 217.293 92.6761 216.161 93.2727C215.285 93.017 215.285 93.017 214.452 92.5909C213.527 92.5336 213.527 92.5336 212.744 92.5909C212.744 92.8159 212.744 93.0409 212.744 93.2727C212.995 93.38 213.247 93.4872 213.506 93.5977C217.356 95.2824 217.356 95.2824 218.211 96.3409C218.498 97.4322 218.517 98.3207 218.211 99.4091C217.361 100.468 216.346 101.192 215.136 101.795C212.762 102.039 210.569 101.97 208.643 100.432C208.131 99.4943 208.131 99.4943 207.96 98.7273C209.454 97.684 209.454 97.684 210.352 97.3636C211.398 97.7898 211.398 97.7898 212.402 98.3864C213.513 98.4723 213.513 98.4723 214.452 98.3864C213.606 97.4281 212.679 96.9236 211.548 96.3409C209.372 95.2207 209.372 95.2207 208.643 94.2955C208.434 93.0913 208.403 92.2911 209.068 91.2353C210.932 88.9869 212.994 88.6727 215.734 89.6293Z" fill="white"/>
<path d="M157.49 89.4389C158.852 90.0724 159.526 90.49 160.121 91.9091C158.571 92.9197 158.571 92.9197 157.729 93.2727C157.003 93.017 157.003 93.017 156.362 92.5909C155.45 92.5338 155.45 92.5338 154.653 92.5909C154.54 92.8159 154.428 93.0409 154.312 93.2727C154.51 93.3307 154.708 93.3887 154.912 93.4485C156.932 94.0737 158.533 94.8149 160.099 96.277C160.666 97.4412 160.466 98.1827 160.121 99.4091C159.03 100.733 157.974 101.662 156.248 101.91C154.141 101.943 152.941 101.691 151.236 100.432C150.403 99.4943 150.403 99.4943 149.869 98.7273C150.546 98.2773 151.223 97.8273 151.92 97.3637C152.112 97.4718 152.304 97.5799 152.502 97.6912C153.338 98.0689 153.999 98.1783 154.91 98.2585C155.183 98.284 155.456 98.3095 155.737 98.3358C155.943 98.3525 156.149 98.3692 156.362 98.3864C155.26 97.0373 153.935 96.4682 152.377 95.7763C151.492 95.2688 151.071 94.8274 150.553 93.9546C150.513 92.1832 151.312 91.2606 152.441 90.0061C153.781 88.7189 155.816 88.8918 157.49 89.4389Z" fill="white"/>
<path d="M150.894 100.432C152.603 101.114 152.603 101.114 154.312 101.795C154.312 101.908 154.312 102.02 154.312 102.136C153.184 102.136 152.056 102.136 150.894 102.136C150.894 101.574 150.894 101.011 150.894 100.432Z" fill="#0A0A0A"/>
<path d="M150.553 89.8636C151.229 89.8636 151.906 89.8636 152.603 89.8636C152.165 90.4457 151.709 91.0138 151.236 91.5682C151.011 91.5682 150.785 91.5682 150.553 91.5682C150.553 91.0057 150.553 90.4432 150.553 89.8636Z" fill="#0A0A0A"/>
<defs>
<linearGradient id="paint0_linear_59_140" x1="392" y1="1.19259e-05" x2="7.69677e-06" y2="194.5" gradientUnits="userSpaceOnUse">
<stop/>
<stop offset="1" stop-color="#101010"/>
</linearGradient>
</defs>
</svg>
