<svg width="392" height="192" viewBox="0 0 392 192" fill="none" xmlns="http://www.w3.org/2000/svg">
<path d="M0 0H392V192H0V0Z" fill="url(#paint0_linear_56_57)"/>
<path d="M185.572 86.7992H176.211V83.1188H185.691C191.141 83.1188 194.104 87.2741 194.104 91.3105C194.104 94.9909 191.852 98.4338 187.35 99.2648L195.526 109H190.668L181.188 97.7214V95.9406H185.572C188.772 95.9406 190.194 93.685 190.194 91.4293C190.431 89.0549 188.89 86.7992 185.572 86.7992Z" fill="white"/>
<path d="M210.694 105.32V109H197.422V105.32H202.162V86.7992H197.422V83.1188H210.694V86.7992H205.954V105.32H210.694Z" fill="white"/>
<path d="M233.09 86.9178C230.838 84.5434 227.757 83 224.439 83C221.003 83 217.803 84.4246 215.552 86.9178C213.301 89.1735 211.879 92.3789 211.879 95.9405C211.879 99.5021 213.301 102.708 215.552 104.963C217.803 107.338 220.884 108.881 224.439 108.881C227.876 108.881 231.075 107.456 233.327 104.963C235.578 102.708 237 99.5021 237 95.9405C236.882 92.3789 235.341 89.1735 233.09 86.9178ZM230.72 102.589C229.061 104.251 226.809 105.319 224.439 105.319C222.069 105.319 219.818 104.37 218.159 102.589C216.5 100.927 215.552 98.5524 215.552 96.178C215.552 93.8036 216.5 91.3104 218.159 89.7671C219.818 88.2237 222.069 86.9178 224.439 86.9178C226.809 86.9178 229.061 87.8675 230.72 89.6483C232.379 91.3104 233.327 93.5661 233.327 96.0592C233.327 98.5524 232.379 100.808 230.72 102.589Z" fill="white"/>
<path d="M174.552 83.1188V86.7992H166.968V88.1051L166.613 88.2238C165.309 88.58 164.48 89.1736 163.887 89.8859C163.413 90.3608 163.058 91.1918 163.058 91.7854H162.939V86.7992H155V83.1188H174.552Z" fill="white"/>
<path d="M166.968 89.1737V109H161.28C162.465 107.1 162.939 102.233 162.702 100.927C162.228 101.283 161.754 101.283 161.28 101.283C160.451 101.283 159.977 100.808 159.858 99.8585C160.332 99.0275 161.043 98.6713 161.517 98.6713C162.347 98.6713 163.295 99.6211 164.361 101.283C164.835 99.5024 164.243 97.6028 162.584 95.822C162.228 95.4659 162.11 94.991 161.991 94.5161C161.873 93.3289 162.465 92.7353 164.243 92.7353C164.243 92.6166 164.243 92.6166 164.243 92.3791C164.243 92.023 164.243 91.9043 164.243 91.7855C164.361 90.4796 165.309 89.6486 166.968 89.1737Z" fill="white"/>
<defs>
<linearGradient id="paint0_linear_56_57" x1="392" y1="1.19259e-05" x2="7.69677e-06" y2="194.5" gradientUnits="userSpaceOnUse">
<stop/>
<stop offset="1" stop-color="#101010"/>
</linearGradient>
</defs>
</svg>
