<svg width="392" height="192" viewBox="0 0 392 192" fill="none" xmlns="http://www.w3.org/2000/svg">
<path d="M0 0H392V192H0V0Z" fill="url(#paint0_linear_62_165)"/>
<path d="M259.773 91.2088H257.901V93.549H259.773V102.709L260.216 103.227C260.777 103.879 261.526 104.08 263.569 104.08H265.22V101.79L264.369 101.706C262.956 101.572 263.007 101.706 263.007 97.3769V93.549H265.22V91.2088H263.007V87.5313H259.773V91.2088Z" fill="white"/>
<path d="M281.731 91.2088H279.859V93.549H281.714L281.765 98.0956C281.816 102.174 281.85 102.709 282.123 103.11C282.616 103.812 283.553 104.08 285.476 104.08H287.178V101.79L286.327 101.689C285.85 101.639 285.391 101.539 285.306 101.489C285.204 101.422 285.136 99.8341 285.136 97.4604V93.549H287.178V91.2088H285.136V87.5313H281.731V91.2088Z" fill="white"/>
<path d="M178.664 90.2894H181.898L182 88.0328H178.562L178.664 90.2894Z" fill="white"/>
<path d="M185.728 91.3758H184.026V93.5488H185.728V97.7612C185.728 101.455 185.762 102.057 186.035 102.575C186.511 103.511 187.209 103.796 189.235 103.879L191.005 103.963V101.489L190.239 101.472C188.945 101.439 188.962 101.505 188.962 97.2931V93.5488H191.005V91.3758H188.962V88.0326H185.728V91.3758Z" fill="white"/>
<path d="M193.388 90.373H196.622V88.0328H193.388V90.373Z" fill="white"/>
<path d="M235.602 90.8744C233.934 91.1585 232.572 92.011 231.721 93.3483C230.955 94.5184 230.649 95.7219 230.649 97.5941C230.649 100.252 231.108 101.539 232.538 102.793C233.832 103.929 234.955 104.314 237.049 104.314C238.887 104.314 239.806 104.046 240.998 103.144C241.696 102.625 242.547 101.405 242.683 100.737L242.802 100.235H239.534L238.87 100.92C238.309 101.522 238.104 101.623 237.355 101.689C235.67 101.857 234.547 101.104 234.138 99.5498C234.019 99.0818 233.951 98.6137 234.002 98.5469C234.053 98.4633 236.096 98.3964 238.547 98.3964H243.007L242.904 96.7583C242.836 95.5046 242.7 94.9028 242.377 94.1841C241.492 92.3119 240.028 91.2087 237.968 90.8744C236.76 90.6905 236.691 90.6905 235.602 90.8744ZM238.24 93.8665C238.802 94.1674 239.551 95.4545 239.483 95.9727C239.432 96.2903 239.296 96.307 236.794 96.307H234.155L234.189 95.8556C234.223 95.187 234.734 94.2342 235.211 93.9333C236.079 93.365 237.27 93.3483 238.24 93.8665Z" fill="white"/>
<path d="M248.947 90.8745C246.19 91.4428 244.488 93.7161 245.117 95.9894C245.526 97.4771 246.462 98.0455 250.071 98.9815C252.828 99.7003 253.135 99.8675 253.135 100.653C253.135 101.355 252.692 101.689 251.569 101.84C249.815 102.074 248.351 101.472 248.113 100.402L247.994 99.9009H246.309C244.709 99.9009 244.624 99.9176 244.624 100.252C244.624 101.656 245.917 103.328 247.483 103.929C248.794 104.431 252.232 104.498 253.577 104.03C254.684 103.662 255.807 102.709 256.216 101.84C256.641 100.904 256.641 99.4162 256.199 98.5637C255.552 97.3267 254.513 96.7751 251.364 96.0062C250.088 95.6886 248.896 95.3041 248.709 95.1369C247.858 94.3847 248.624 93.3985 250.19 93.2815C251.398 93.1812 252.249 93.549 252.624 94.3346L252.879 94.8862H256.233L256.113 94.3346C255.926 93.4654 255.364 92.4123 254.82 91.9777C253.713 91.0583 250.735 90.49 248.947 90.8745Z" fill="white"/>
<path d="M293.425 90.8745C291.689 91.1754 290.123 92.3121 289.323 93.8332C288.37 95.7054 288.268 99.1655 289.119 101.004C289.902 102.693 291.161 103.679 293.17 104.18C296.37 104.999 299.859 103.378 300.625 100.737L300.779 100.235H297.306L297.017 100.737C296.404 101.79 294.31 102.057 293.136 101.238C292.506 100.804 291.961 99.7338 291.944 98.9315V98.3966H301L300.881 96.9256C300.676 94.4183 299.859 92.7968 298.242 91.7437C297.051 90.9581 295.042 90.5904 293.425 90.8745ZM296.098 93.8666C296.812 94.2511 297.255 94.9364 297.289 95.6719L297.306 96.3071L294.77 96.3573C293.374 96.374 292.165 96.3406 292.08 96.257C291.842 96.023 292.285 94.8696 292.846 94.2678C293.68 93.3819 294.957 93.2314 296.098 93.8666Z" fill="white"/>
<path d="M107.343 91.0917C104.909 91.8941 103.36 93.5155 102.73 95.8891C102.406 97.1595 102.509 98.4633 103.036 99.8842C103.309 100.57 103.7 101.121 104.517 101.923C105.998 103.378 107.053 103.796 109.215 103.812C110.594 103.829 110.866 103.779 111.854 103.311C112.466 103.027 113.215 102.592 113.522 102.325C114.117 101.84 115.088 100.536 115.088 100.252C115.088 100.135 114.526 100.068 113.556 100.068C112.228 100.068 111.973 100.118 111.411 100.486C110.781 100.904 109.828 101.238 109.198 101.238C107.853 101.238 106.321 100.252 105.658 98.9314L105.368 98.3965H115.82L115.735 96.9924C115.666 95.839 115.564 95.3877 115.122 94.5017C114.458 93.1979 113.215 92.0278 111.854 91.4093C110.73 90.8911 108.449 90.7407 107.343 91.0917ZM110.339 93.7495C111.36 94.0337 112.875 95.4712 112.875 96.1399C112.875 96.19 111.224 96.2234 109.215 96.2234C105.13 96.2234 105.198 96.2569 106.049 95.1035C106.985 93.8331 108.756 93.2815 110.339 93.7495Z" fill="white"/>
<path d="M123.207 91.0584C122.475 91.2255 121.607 91.6267 121.182 92.0112C120.892 92.2452 120.875 92.2285 120.875 91.727V91.1921L117.794 91.2924V103.662L121.045 103.762V100.285C121.045 98.3297 121.13 96.5244 121.233 96.1566C121.522 95.1203 122.611 94.1006 123.803 93.7496L124.824 93.432L124.841 92.1616L124.875 90.8745L124.365 90.8912C124.092 90.9079 123.565 90.9748 123.207 91.0584Z" fill="white"/>
<path d="M129.982 91.0916C127.207 92.011 125.42 94.1506 125.181 96.8585C124.943 99.7336 126.816 102.575 129.624 103.528C130.203 103.729 130.986 103.829 131.939 103.829C133.199 103.829 133.522 103.762 134.526 103.294C135.939 102.642 137.165 101.489 137.829 100.152C138.271 99.2321 138.322 98.9981 138.322 97.3934C138.322 95.7386 138.288 95.5547 137.761 94.5183C137.114 93.2145 135.871 92.0277 134.509 91.4092C133.386 90.9077 131.071 90.7406 129.982 91.0916ZM132.841 93.7828C136.195 94.7691 136.569 99.182 133.42 100.753C132.416 101.255 130.714 101.154 129.743 100.519C128.313 99.5832 127.65 97.7445 128.194 96.1397C128.569 95.0031 129.726 94.0169 131.003 93.6993C131.769 93.5154 131.99 93.5321 132.841 93.7828Z" fill="white"/>
<path d="M156.774 91.0918C155.004 91.5765 153.387 92.9639 152.57 94.6856C152.161 95.5214 152.11 95.839 152.11 97.3936C152.11 98.9648 152.161 99.249 152.587 100.085C153.319 101.556 154.255 102.475 155.736 103.194C156.944 103.796 157.115 103.829 158.561 103.812C160.74 103.796 161.796 103.378 163.276 101.924C164.519 100.703 165.064 99.6 165.251 97.895C165.523 95.2874 163.94 92.6463 161.387 91.4762C160.519 91.075 160.025 90.9747 158.919 90.9246C158.153 90.9079 157.217 90.9747 156.774 91.0918ZM160.383 94.0504C162.953 95.3375 163.106 98.9481 160.689 100.519C159.719 101.155 158.017 101.255 157.012 100.753C155.753 100.135 154.749 98.6305 154.749 97.3601C154.749 96.5745 155.31 95.3375 155.957 94.7023C157.098 93.5824 158.902 93.3149 160.383 94.0504Z" fill="white"/>
<path d="M216.776 91.0248C214.053 91.7102 212.01 94.134 211.823 96.8921C211.618 99.7839 213.031 102.107 215.789 103.361C216.657 103.762 217.014 103.829 218.325 103.812C220.18 103.812 221.389 103.411 222.58 102.358C223.38 101.673 224.368 100.486 224.368 100.202C224.368 100.135 223.67 100.068 222.802 100.068C221.406 100.068 221.168 100.118 220.623 100.486C219.772 101.071 218.359 101.338 217.457 101.088C216.487 100.837 215.414 100.018 215.006 99.249C214.819 98.8812 214.665 98.5302 214.665 98.4968C214.665 98.4466 216.98 98.3797 219.823 98.363L224.964 98.3129L224.946 97.0258C224.929 95.9727 224.827 95.5548 224.402 94.6522C223.329 92.4123 221.185 91.0081 218.665 90.9413C217.916 90.9078 217.065 90.958 216.776 91.0248ZM220.044 93.9501C220.861 94.3178 221.508 94.953 221.968 95.839L222.172 96.2234H214.699L214.801 95.8557C214.938 95.3041 216.367 93.9835 217.048 93.7662C218.053 93.4486 219.108 93.5155 220.044 93.9501Z" fill="white"/>
<path d="M270.003 91.1918C269.51 91.359 268.897 91.6432 268.642 91.827C267.978 92.3285 267.28 93.532 267.161 94.418L267.042 95.2203H270.276L270.429 94.7021C270.684 93.8496 271.365 93.4652 272.625 93.4652C273.987 93.4652 274.633 93.8664 274.718 94.7523C274.804 95.6549 274.412 95.8555 271.774 96.3068C269.186 96.7414 268.182 97.1426 267.45 98.0118C266.497 99.1485 266.344 101.138 267.093 102.558C268.199 104.698 271.91 104.982 274.106 103.093C274.446 102.809 274.752 102.575 274.804 102.575C274.838 102.575 274.923 102.876 274.991 103.244L275.093 103.912H276.965C278.004 103.912 278.838 103.862 278.838 103.812C278.838 103.762 278.685 103.528 278.497 103.294C278.174 102.893 278.157 102.609 278.157 98.5635C278.157 93.6323 278.038 92.9136 277.05 92.0611C275.74 90.9411 272.097 90.4898 270.003 91.1918ZM274.752 98.764C274.735 100.185 274.31 101.121 273.442 101.539C272.489 102.007 271.774 102.124 271.093 101.907C270.361 101.673 269.986 101.171 269.986 100.452C269.986 99.1986 270.548 98.764 272.71 98.3127C273.391 98.179 274.055 97.9951 274.225 97.8948C274.701 97.6274 274.752 97.6942 274.752 98.764Z" fill="white"/>
<path d="M91.5976 93.8831H94.4913C96.0913 93.8831 97.385 93.9165 97.385 93.9667C97.385 94.0168 95.9722 95.6884 94.2359 97.6775L91.0869 101.322V103.745L96.4658 103.712L101.845 103.662V101.154L98.6786 101.104C96.9424 101.088 95.5126 101.021 95.5126 100.971C95.5126 100.92 96.8914 99.3324 98.5765 97.4268L101.64 93.9667V91.2086H91.5976V93.8831Z" fill="white"/>
<path d="M139.769 103.745H142.833V101.104L145.012 101.037C147.497 100.971 148.297 100.703 149.387 99.65C151.855 97.2262 151.14 93.2145 147.957 91.6766C147.225 91.3256 146.918 91.2922 143.48 91.242L139.769 91.1919V103.745ZM147.14 94.2675C148.178 95.0365 148.399 96.6077 147.599 97.6107C147.021 98.3294 146.255 98.5635 144.467 98.5635H142.833V93.6825L144.672 93.7326C146.391 93.7995 146.578 93.8329 147.14 94.2675Z" fill="white"/>
<path d="M166.493 93.8831L169.421 93.9165L172.332 93.9667L166.068 101.221L166.102 102.441L166.119 103.662L171.413 103.712L176.706 103.745V101.071H173.557C171.821 101.071 170.408 101.021 170.408 100.937C170.425 100.87 171.804 99.2822 173.472 97.3934L176.519 93.9667L176.536 92.5793V91.2086H166.493V93.8831Z" fill="white"/>
<path d="M178.579 103.745H181.983V91.2086H178.579V103.745Z" fill="white"/>
<path d="M193.388 103.745H196.622V91.2086H193.388V103.745Z" fill="white"/>
<path d="M198.835 91.3256C198.835 91.4092 199.839 94.2174 201.065 97.594L203.312 103.745H206.767L207.295 102.274C207.584 101.472 208.606 98.7139 209.542 96.123C210.495 93.5488 211.261 91.3924 211.261 91.3256C211.261 91.2587 210.495 91.2086 209.559 91.2086H207.874L206.495 95.3875C205.729 97.6775 205.082 99.5664 205.048 99.5664C205.014 99.5664 204.35 97.6775 203.584 95.3875L202.171 91.2086H200.503C199.584 91.2086 198.835 91.2587 198.835 91.3256Z" fill="white"/>
<path d="M226.632 100.402C225.202 101.255 225.219 103.411 226.666 104.347C227.245 104.715 228.47 104.715 229.049 104.347C230.104 103.662 230.462 102.157 229.815 101.121C229.185 100.085 227.704 99.7504 226.632 100.402Z" fill="white"/>
<defs>
<linearGradient id="paint0_linear_62_165" x1="392" y1="1.19259e-05" x2="7.69677e-06" y2="194.5" gradientUnits="userSpaceOnUse">
<stop/>
<stop offset="1" stop-color="#101010"/>
</linearGradient>
</defs>
</svg>
