<svg width="392" height="192" viewBox="0 0 392 192" fill="none" xmlns="http://www.w3.org/2000/svg">
<path d="M0 0H392V192H0V0Z" fill="url(#paint0_linear_56_47)"/>
<path d="M122.496 93.5855V90.576H133.684V93.6564L126.744 101.694H133.932V104.739H122V101.871L129.011 93.6209L122.496 93.5855Z" fill="white"/>
<path d="M205.241 93.5855V90.576H216.43V93.6564L209.49 101.694H216.678V104.739H204.746V101.871L211.756 93.6209L205.241 93.5855Z" fill="white"/>
<path d="M222.378 89.62H218.625V86.9999H222.378V89.62ZM218.625 90.5759H222.378V104.739H218.625V90.5759Z" fill="white"/>
<path d="M224.538 93.3377V90.7176H226.521V86.9999H230.167V90.7176H232.469V93.3377H230.167V100.808C230.167 101.375 230.238 101.764 230.38 101.906C230.522 102.048 230.982 102.119 231.725 102.119C231.832 102.119 231.973 102.119 232.079 102.119C232.221 102.119 232.327 102.119 232.434 102.083V104.845L230.699 104.916C228.964 104.986 227.76 104.668 227.123 103.995C226.698 103.57 226.485 102.933 226.485 102.048V93.3377H224.538Z" fill="white"/>
<path d="M238.63 89.62H234.876V86.9999H238.63V89.62ZM234.876 90.5759H238.63V104.739H234.876V90.5759Z" fill="white"/>
<path d="M250.951 90.576L247.835 100.03L244.755 90.576H240.825L245.888 104.703H249.818L254.881 90.576H250.951Z" fill="white"/>
<path d="M166.931 90.1156C162.859 90.1156 159.531 93.4438 159.531 97.5156C159.531 101.587 162.859 104.916 166.931 104.916C171.003 104.916 174.331 101.587 174.331 97.5156C174.331 93.4438 171.038 90.1156 166.931 90.1156ZM166.931 101.694C164.63 101.694 162.753 99.817 162.753 97.5156C162.753 95.2142 164.63 93.3376 166.931 93.3376C169.233 93.3376 171.109 95.2142 171.109 97.5156C171.109 99.817 169.268 101.694 166.931 101.694Z" fill="white"/>
<path d="M196.567 90.1156C192.495 90.1156 189.167 93.4438 189.167 97.5156C189.167 101.587 192.495 104.916 196.567 104.916C200.638 104.916 203.967 101.587 203.967 97.5156C203.967 93.4438 200.674 90.1156 196.567 90.1156ZM196.567 101.694C194.265 101.694 192.389 99.817 192.389 97.5156C192.389 95.2142 194.265 93.3376 196.567 93.3376C198.868 93.3376 200.745 95.2142 200.745 97.5156C200.745 99.817 198.868 101.694 196.567 101.694Z" fill="white"/>
<path d="M144.873 100.561C144.094 101.304 143.067 101.764 141.934 101.764C139.987 101.764 138.358 100.454 137.827 98.684H149.228C149.299 98.2945 149.334 97.9051 149.334 97.5156C149.334 93.4438 146.006 90.1156 141.934 90.1156C137.862 90.1156 134.534 93.4438 134.534 97.5156C134.534 101.587 137.862 104.916 141.934 104.916C144.943 104.916 147.493 103.145 148.661 100.561H144.873ZM141.934 93.2668C143.846 93.2668 145.439 94.506 146.006 96.2409H137.898C138.429 94.506 140.057 93.2668 141.934 93.2668Z" fill="white"/>
<path d="M265.539 100.561C264.76 101.304 263.733 101.764 262.6 101.764C260.653 101.764 259.024 100.454 258.493 98.684H269.894C269.965 98.2945 270 97.9051 270 97.5156C270 93.4438 266.672 90.1156 262.6 90.1156C258.528 90.1156 255.2 93.4438 255.2 97.5156C255.2 101.587 258.528 104.916 262.6 104.916C265.61 104.916 268.159 103.145 269.327 100.561H265.539ZM262.6 93.2668C264.512 93.2668 266.105 94.506 266.672 96.2409H258.564C259.095 94.506 260.688 93.2668 262.6 93.2668Z" fill="white"/>
<path d="M154.893 91.6381V90.5759H151.352V104.739H155.07V97.9405C155.07 97.551 155.105 97.1969 155.141 96.8783C155.424 94.8247 157.194 93.2314 159.354 93.2314V90.1156C157.655 90.1156 156.132 90.6821 154.893 91.6381Z" fill="white"/>
<path d="M182.51 90.576H175.677V104.739H179.076V101.729H182.475C185.555 101.729 188.069 99.2152 188.069 96.1348C188.104 93.0544 185.626 90.576 182.51 90.576ZM182.298 98.7549H179.111V93.5147H182.298C183.749 93.5147 184.918 94.6832 184.918 96.1348C184.918 97.5865 183.749 98.7549 182.298 98.7549Z" fill="white"/>
<defs>
<linearGradient id="paint0_linear_56_47" x1="392" y1="1.19259e-05" x2="7.69677e-06" y2="194.5" gradientUnits="userSpaceOnUse">
<stop/>
<stop offset="1" stop-color="#101010"/>
</linearGradient>
</defs>
</svg>
